<svg width="32" height="32" viewBox="0 0 32 32" fill="none" xmlns="http://www.w3.org/2000/svg">
<path fill-rule="evenodd" clip-rule="evenodd" d="M19.303 5.92279L28.9947 22.743C29.208 23.245 29.3013 23.6533 29.328 24.0774C29.3813 25.0683 29.0347 26.0314 28.3548 26.7726C27.6749 27.5112 26.7551 27.9472 25.7553 28H6.23854C5.82528 27.9749 5.41202 27.8811 5.02541 27.7358C3.09241 26.9563 2.15923 24.7631 2.94577 22.8619L12.7041 5.9109C13.0374 5.31504 13.544 4.80109 14.1705 4.47079C15.9836 3.46536 18.2898 4.12596 19.303 5.92279ZM17.1567 17.0076C17.1567 17.6418 16.6368 18.1716 15.9969 18.1716C15.357 18.1716 14.8238 17.6418 14.8238 17.0076V13.27C14.8238 12.6345 15.357 12.1205 15.9969 12.1205C16.6368 12.1205 17.1567 12.6345 17.1567 13.27V17.0076ZM15.9969 22.6901C15.357 22.6901 14.8238 22.1603 14.8238 21.5275C14.8238 20.892 15.357 20.3635 15.9969 20.3635C16.6368 20.3635 17.1567 20.8801 17.1567 21.5129C17.1567 22.1603 16.6368 22.6901 15.9969 22.6901Z" fill="#F59E0B"/>
</svg>
