<svg width="24" height="24" viewBox="0 0 24 24" fill="none" xmlns="http://www.w3.org/2000/svg">
<path d="M17 4H7C6.20455 4.00066 5.44188 4.31695 4.87941 4.87941C4.31695 5.44188 4.00066 6.20455 4 7V19.5C4.00066 20.2954 4.31695 21.0581 4.87941 21.6206C5.44188 22.1831 6.20455 22.4993 7 22.5H17C17.7954 22.4993 18.5581 22.1831 19.1206 21.6206C19.6831 21.0581 19.9993 20.2954 20 19.5V7C19.9993 6.20455 19.6831 5.44188 19.1206 4.87941C18.5581 4.31695 17.7954 4.00066 17 4ZM9.5 18C9.5 18.2652 9.39464 18.5196 9.20711 18.7071C9.01957 18.8946 8.76522 19 8.5 19C8.23478 19 7.98043 18.8946 7.79289 18.7071C7.60536 18.5196 7.5 18.2652 7.5 18V8.5C7.5 8.23478 7.60536 7.98043 7.79289 7.79289C7.98043 7.60536 8.23478 7.5 8.5 7.5C8.76522 7.5 9.01957 7.60536 9.20711 7.79289C9.39464 7.98043 9.5 8.23478 9.5 8.5V18ZM13 18C13 18.2652 12.8946 18.5196 12.7071 18.7071C12.5196 18.8946 12.2652 19 12 19C11.7348 19 11.4804 18.8946 11.2929 18.7071C11.1054 18.5196 11 18.2652 11 18V8.5C11 8.23478 11.1054 7.98043 11.2929 7.79289C11.4804 7.60536 11.7348 7.5 12 7.5C12.2652 7.5 12.5196 7.60536 12.7071 7.79289C12.8946 7.98043 13 8.23478 13 8.5V18ZM16.5 18C16.5 18.2652 16.3946 18.5196 16.2071 18.7071C16.0196 18.8946 15.7652 19 15.5 19C15.2348 19 14.9804 18.8946 14.7929 18.7071C14.6054 18.5196 14.5 18.2652 14.5 18V8.5C14.5 8.23478 14.6054 7.98043 14.7929 7.79289C14.9804 7.60536 15.2348 7.5 15.5 7.5C15.7652 7.5 16.0196 7.60536 16.2071 7.79289C16.3946 7.98043 16.5 8.23478 16.5 8.5V18ZM17.5 23C17.5 23.2652 17.3946 23.5196 17.2071 23.7071C17.0196 23.8946 16.7652 24 16.5 24C16.2348 24 15.9804 23.8946 15.7929 23.7071C15.6054 23.5196 15.5 23.2652 15.5 23H17.5ZM8.5 23C8.5 23.2652 8.39464 23.5196 8.20711 23.7071C8.01957 23.8946 7.76522 24 7.5 24C7.23478 24 6.98043 23.8946 6.79289 23.7071C6.60536 23.5196 6.5 23.2652 6.5 23H8.5ZM10.5 3V2H13.5V3H15.5V2C15.5001 1.73734 15.4484 1.47724 15.3479 1.23456C15.2474 0.991875 15.1001 0.77137 14.9144 0.58564C14.7286 0.39991 14.5081 0.252593 14.2654 0.152107C14.0228 0.0516212 13.7627 -6.56277e-05 13.5 6.25369e-08H10.5C10.2373 -6.56277e-05 9.97724 0.0516212 9.73456 0.152107C9.49187 0.252593 9.27137 0.39991 9.08564 0.58564C8.89991 0.77137 8.75259 0.991875 8.65211 1.23456C8.55162 1.47724 8.49993 1.73734 8.5 2V3H10.5Z" fill="#EA1A0E"/>
</svg>
