<svg width="24" height="24" viewBox="0 0 24 24" fill="none" xmlns="http://www.w3.org/2000/svg">
<g clip-path="url(#clip0_8_99)">
<path d="M23.861 8.00007H13V2.00007C12.9944 1.7359 13.0423 1.47332 13.1409 1.22814C13.2394 0.982965 13.3865 0.760254 13.5733 0.573412C13.7602 0.386569 13.9829 0.239457 14.2281 0.140926C14.4732 0.042395 14.7358 -0.00551718 15 7.21386e-05C15.083 7.21386e-05 22.746 0.100072 23.861 8.00007ZM6.505 10.0001L4.244 7.45707C3.462 6.44907 0.284 4.94607 0 7.00007C0 7.26529 0.105357 7.51964 0.292893 7.70718C0.48043 7.89472 0.734784 8.00007 1 8.00007C1.3305 8.00014 1.65724 8.07022 1.95871 8.2057C2.26017 8.34118 2.52951 8.53897 2.749 8.78607L4 10.1931V11.0001C4.00159 12.3257 4.52888 13.5965 5.46622 14.5339C6.40356 15.4712 7.67441 15.9985 9 16.0001H11.865L9.257 19.1291C5.576 18.1131 4.685 23.8241 8.5 24.0001C8.91864 23.9973 9.32991 23.8897 9.69625 23.687C10.0626 23.4844 10.3723 23.1932 10.5972 22.8401C10.822 22.4869 10.9548 22.0831 10.9834 21.6654C11.0121 21.2478 10.9356 20.8296 10.761 20.4491L14 16.5621L17.239 20.4491C17.0644 20.8296 16.9879 21.2478 17.0166 21.6654C17.0452 22.0831 17.178 22.4869 17.4028 22.8401C17.6277 23.1932 17.9374 23.4844 18.3038 23.687C18.6701 23.8897 19.0814 23.9973 19.5 24.0001C23.316 23.8231 22.423 18.1131 18.743 19.1291L16.135 16.0001H19C20.3256 15.9985 21.5964 15.4712 22.5338 14.5339C23.4711 13.5965 23.9984 12.3257 24 11.0001V10.0001H6.505Z" fill="#EA1A0E"/>
</g>
<defs>
<clipPath id="clip0_8_99">
<rect width="24" height="24" fill="white"/>
</clipPath>
</defs>
</svg>
