<svg width="14" height="14" viewBox="0 0 14 14" fill="none" xmlns="http://www.w3.org/2000/svg">
<path d="M10.7123 2.7042C11.6762 3.66795 12.2275 4.96877 12.2496 6.33161C12.2717 7.69445 11.7629 9.01247 10.8308 10.007L10.7123 10.1295L8.23725 12.604C7.9232 12.9178 7.50159 13.1006 7.05784 13.1152C6.61409 13.1298 6.18137 12.9752 5.84733 12.6827L5.76334 12.604L3.28767 10.1289C2.3031 9.1443 1.74997 7.80893 1.74997 6.41654C1.74997 5.02414 2.3031 3.68877 3.28767 2.7042C4.27224 1.71963 5.60761 1.1665 7 1.1665C8.3924 1.1665 9.72776 1.71963 10.7123 2.7042ZM7 4.66654C6.77019 4.66654 6.54263 4.7118 6.33031 4.79975C6.11799 4.88769 5.92507 5.0166 5.76256 5.1791C5.60006 5.3416 5.47116 5.53452 5.38321 5.74684C5.29527 5.95916 5.25 6.18672 5.25 6.41654C5.25 6.64635 5.29527 6.87391 5.38321 7.08623C5.47116 7.29855 5.60006 7.49147 5.76256 7.65397C5.92507 7.81648 6.11799 7.94538 6.33031 8.03333C6.54263 8.12127 6.77019 8.16654 7 8.16654C7.46413 8.16654 7.90925 7.98216 8.23744 7.65397C8.56563 7.32578 8.75 6.88066 8.75 6.41654C8.75 5.95241 8.56563 5.50729 8.23744 5.1791C7.90925 4.85091 7.46413 4.66654 7 4.66654Z" fill="#EA1A0E"/>
</svg>
