<svg width="24" height="24" viewBox="0 0 24 24" fill="none" xmlns="http://www.w3.org/2000/svg">
<g clip-path="url(#clip0_5_625)">
<path d="M24 12C24 5.37258 18.6274 0 12 0C5.37258 0 0 5.37258 0 12C0 18.6274 5.37258 24 12 24C18.6274 24 24 18.6274 24 12Z" fill="white"/>
<path d="M12.0035 0C18.631 0 24 5.373 24 12.0025C24 18.632 18.631 24 12.0035 24C5.375 24 0 18.632 0 12.0025C0 5.373 5.375 0 12.0035 0ZM11.0695 5.786C9.1895 5.786 7.9695 5.89 7.087 6.218C5.6035 6.7955 4.579 8.007 4.5785 9.5985C4.5785 10.9245 5.196 11.885 6.9825 12.9895C8.8885 14.1445 9.269 14.527 9.269 15.223C9.269 15.985 8.522 16.8525 6.601 16.853C5.931 16.8525 4.921 16.76 4.2755 16.602L3.9675 16.5245C3.7955 16.9845 3.4055 18.0745 3.2865 18.4695L3.5915 18.5595C4.1715 18.7445 5.55 18.8895 6.537 18.8895C9.8205 18.8895 11.78 16.905 11.78 14.8275C11.78 13.551 11.2 12.5805 9.2415 11.3585C8.2595 10.754 7.7585 10.3625 7.4545 10.059C7.208 9.7425 7.1805 9.5065 7.1805 9.2575C7.1805 9.0195 7.2335 8.7455 7.3905 8.545C7.5595 8.297 7.8705 8.1385 8.2915 8.0085C8.724 7.865 9.5255 7.8615 10.7735 7.8615H11.9355L12.7655 5.7865L11.0695 5.786ZM14.012 5.786L13.182 7.861H15.1175C16.42 7.861 16.671 7.833 16.998 7.833C16.5275 8.9095 13.699 16.117 13.68 16.165H16.0885C16.11 16.1115 19.6925 7.135 20.0735 6.1915C20.1785 5.9805 20.126 5.7865 19.8515 5.7865L14.012 5.786Z" fill="#C4D600"/>
</g>
<defs>
<clipPath id="clip0_5_625">
<rect width="24" height="24" fill="white"/>
</clipPath>
</defs>
</svg>
