<svg width="24" height="24" viewBox="0 0 24 24" fill="none" xmlns="http://www.w3.org/2000/svg">
<g clip-path="url(#clip0_7_62)">
<path d="M20.2105 0H3.78947C1.69661 0 0 1.69661 0 3.78947V20.2105C0 22.3034 1.69661 24 3.78947 24H20.2105C22.3034 24 24 22.3034 24 20.2105V3.78947C24 1.69661 22.3034 0 20.2105 0Z" fill="#013595"/>
<path d="M7.1122 13.7558C7.1122 15.336 8.24588 16.3358 9.93599 16.3358C11.2541 16.3358 12.4831 15.6252 13.3263 14.1082C14.0274 12.8475 14.6248 11.5579 15.204 10.2979C15.852 8.88944 17.3697 5.48523 17.3697 5.48523H19.8859C18.8008 7.93386 17.5598 10.6901 16.4217 13.1071C15.4598 15.1497 15.1149 15.7282 14.4909 16.4798C13.3162 17.8926 11.5895 18.5141 9.77746 18.5141C6.83936 18.5141 4.79999 16.5884 4.79999 13.9509C4.79999 12.8804 5.11578 11.681 5.70504 10.356C6.45536 8.66902 7.12736 7.16397 7.88651 5.48586H10.3282C9.79229 6.67117 9.26239 7.85919 8.73851 9.04986C8.40251 9.81344 8.10125 10.4734 7.78736 11.2452C7.29472 12.456 7.1122 13.0863 7.1122 13.7551" fill="white"/>
</g>
<defs>
<clipPath id="clip0_7_62">
<rect width="24" height="24" rx="12" fill="white"/>
</clipPath>
</defs>
</svg>
