<svg width="46" height="48" viewBox="0 0 46 48" fill="none" xmlns="http://www.w3.org/2000/svg">
<path fill-rule="evenodd" clip-rule="evenodd" d="M43.9288 16.7122C42.1545 5.76056 31.8181 -1.52841 20.954 0.273362C20.8858 0.287012 20.8221 0.300661 20.7538 0.309761C20.7584 0.391659 20.7538 0.287012 20.7538 0.36891C31.2449 -1.36461 41.2128 5.88796 42.9279 16.4529C44.643 27.0223 37.4094 37.0504 26.9092 38.7884C16.3272 40.5583 6.38662 33.4013 4.66238 22.8182C4.09824 19.3284 4.43946 15.9023 5.61777 12.8175C5.54042 12.7902 5.60412 12.822 5.53132 12.7947C4.18013 16.1253 3.75704 19.7652 4.31662 23.2914C6.10001 34.2476 16.3863 41.6503 27.3323 39.8258C38.201 38.0195 45.694 27.6548 43.9151 16.7031L43.9288 16.7122Z" fill="#ED001D"/>
<path fill-rule="evenodd" clip-rule="evenodd" d="M21.3898 21.9229L22.1723 20.7308C21.7629 16.1672 19.3698 14.1152 17.1906 13.0414C16.0624 12.4773 14.8704 12.1815 13.6057 12.0268C13.2417 11.9813 12.805 11.9586 12.2454 11.9085C12.5502 11.5536 12.7549 11.3079 12.9733 11.0668C15.2981 8.52337 17.6183 5.97087 19.9658 3.44566C20.1523 3.24547 20.2888 3.04982 20.3571 2.84507C20.5072 2.39008 20.1341 1.93509 19.6564 1.93509H4.20648C3.91076 3.55486 3.61505 5.14733 3.32388 6.72615C3.70148 6.90815 3.91531 6.8399 4.10184 6.54871C4.50219 5.92082 5.11637 5.55682 5.78059 5.27018C6.5449 4.93803 7.34106 4.80154 8.16451 4.79699C10.2846 4.79244 12.4046 4.79699 14.5247 4.79699C14.6839 4.79699 14.8386 4.85159 15.0569 4.89709C14.9023 5.08363 14.8113 5.20193 14.7112 5.31568C13.4965 6.6306 12.2727 7.93188 11.0671 9.25136C9.97974 10.4389 8.91972 11.6492 7.82785 12.823C7.50484 13.1734 7.44114 13.5101 7.64132 13.9196C7.67317 13.9833 7.70046 14.047 7.72776 14.1152C7.7869 14.2563 7.92794 14.3382 8.07807 14.3245C8.82873 14.2699 9.55664 14.2017 10.2891 14.1835C11.1353 14.1653 12.4819 14.2017 13.3054 14.4292C13.9878 14.5202 14.5838 14.7022 15.1161 14.9479C15.0387 15.0935 14.966 15.2345 14.8841 15.3801C13.6694 17.8644 12.2863 20.2804 11.0716 22.7737C8.64675 26.9232 6.22189 30.9954 3.80157 35.1449C2.65511 37.0241 1.4313 38.9077 0.28029 40.7959C0.212048 40.9051 -0.129162 41.4284 0.0528166 41.5512C0.19385 41.6513 0.576004 41.4056 0.87172 41.1326C2.10917 39.9952 4.17463 37.2197 4.65687 36.5463C7.07264 33.325 9.29732 29.9762 11.3218 26.5047C12.2772 25.0987 13.2281 23.5973 14.2608 22.1049C14.5201 21.6044 14.8886 21.5361 14.693 22.0184C14.1743 22.8465 13.6557 23.6792 13.0461 24.5891C12.2727 25.9223 11.4128 27.1644 10.6258 28.4975C10.1071 29.4848 5.03448 36.7056 5.43028 37.0514C5.84428 37.4108 7.00894 35.9639 7.7687 35.0585C8.46477 34.144 9.24273 33.2294 9.9388 32.324C12.7049 28.6704 15.3891 24.8485 17.4682 20.7763C17.641 20.4442 17.9322 20.6398 17.8185 20.8537C16.9495 22.4416 15.9941 23.9385 15.0433 25.5128C14.0879 27.1689 12.9687 28.9161 11.845 30.5768C11.1399 31.5505 10.8805 31.869 11.0261 31.9646C11.3491 32.1784 12.0952 31.2593 12.4365 30.909C14.7794 28.4975 17.0041 25.2898 18.8603 22.3142C18.9695 22.1276 19.0423 22.6281 18.8785 22.8693C17.7366 24.7393 16.5355 26.6002 15.2162 28.4202C14.7203 29.2619 16.6584 28.2473 18.6419 25.7721C18.6692 25.7403 18.6829 25.7175 18.6829 25.7175L21.3943 21.9092L21.3898 21.9229Z" fill="#ED001D"/>
<path fill-rule="evenodd" clip-rule="evenodd" d="M45.4712 4.8329C45.2301 4.46436 42.2365 6.77572 40.5942 7.94049C39.5478 8.77313 38.5151 9.51932 37.4778 10.352C36.4951 11.089 34.6344 12.7407 33.9611 13.3503C33.8109 13.4823 33.7199 13.6688 33.7154 13.869C33.6881 14.6516 33.2468 14.9838 33.2468 14.9838C33.4789 14.2057 33.3879 13.3958 33.215 12.8362C33.0148 12.1992 32.7555 11.2346 31.4771 11.2756H31.3133C30.913 11.2983 29.8802 11.4621 29.5754 12.5541C29.4981 12.8226 29.5299 13.7143 30.2396 14.2194C30.3306 14.3331 30.4717 14.2831 30.4717 14.5015C30.367 14.8382 30.2305 15.1976 29.953 15.4115H29.9485C29.1978 15.6754 28.8748 15.6208 28.297 15.4251C27.8876 15.2841 27.5691 14.9246 27.5418 14.4924C27.5327 14.3604 27.5464 14.2239 27.6146 14.0783C28.3835 12.9909 29.075 11.8489 29.6891 10.6704C30.2988 9.44652 30.5899 6.27523 27.5827 4.63725C24.0342 2.70354 21.814 4.44616 20.6949 5.43804C19.0843 7.20796 18.1472 9.27817 17.1554 11.4803C17.1508 11.494 17.0553 11.7306 17.0143 11.8534C17.3055 11.9717 17.5967 12.1037 17.8969 12.2493C20.9314 13.7507 22.7239 16.2714 23.279 19.7657C23.6156 19.1833 23.9386 18.5919 24.2434 17.9913C24.2889 17.9048 24.3708 17.8593 24.4527 17.8457C24.248 18.4144 23.7112 19.884 23.4655 20.3345C23.4427 20.3754 23.0788 21.1398 22.8331 21.6449C22.6966 21.9315 22.5101 22.1954 22.2872 22.4229C21.4728 23.2555 19.3892 25.485 18.8569 27.032C18.6431 27.6598 16.7823 31.9049 16.1727 32.7103C15.3993 33.734 14.5804 34.7486 13.6841 35.7451C12.2965 37.8289 11.8749 37.7691 10.8331 40.8403C9.01327 41.8367 9.1907 41.4954 8.92228 44.7395C8.92228 45.7405 8.84039 46.8188 8.84039 47.8107C9.09971 48.3112 9.18615 47.7243 9.44547 47.151C10.2234 45.3265 11.0059 43.5839 11.6975 41.7457C13.4854 38.6927 14.6031 38.2384 16.6595 35.6814L18.4201 33.5884C18.7704 33.1743 19.0843 32.7558 19.3755 32.3372C19.371 32.3463 19.3664 32.3599 19.3619 32.3736C19.3619 32.3736 21.8004 30.0031 21.8049 29.994C22.2235 29.6391 22.7057 29.2933 23.1789 28.9475C23.793 28.5016 24.4709 28.1467 25.1897 27.901C26.5455 27.4369 28.1241 26.8955 29.2024 26.7908C29.2478 26.7908 29.266 26.8454 29.2296 26.8727C28.6473 27.3186 28.0104 27.6416 27.3553 28.1057C26.5 28.7655 25.126 29.4207 23.9204 30.822L23.8658 30.8311C23.5201 30.6264 23.0242 31.1087 22.6875 31.4317C21.9232 32.1643 18.6431 34.6667 19.189 35.3811L19.2572 35.3902C20.9815 34.148 22.6193 32.9196 24.3299 31.9231C28.3925 29.5981 32.3824 27.355 37.1411 25.5305C38.4332 24.9572 39.2157 24.7843 37.5733 24.2793C35.2395 23.7014 33.2423 23.6241 31.0813 23.7879C29.6937 23.9471 28.3152 24.1974 26.9276 24.2793C26.5136 24.3066 26.4226 24.1109 26.7593 23.8789C27.3598 23.4739 31.7182 19.8431 31.6864 17.0813L31.7137 17.0449C32.7464 16.6263 33.7609 15.8073 34.5388 15.0611C35.3213 14.4014 36.0083 13.6552 36.7908 12.909C38.7835 11.0799 40.7944 9.05068 42.9371 7.25801C43.9198 6.46632 45.7806 5.27424 45.4803 4.81925L45.4712 4.8329Z" fill="#ED001D"/>
</svg>
