<svg width="163" height="56" viewBox="0 0 163 56" fill="none" xmlns="http://www.w3.org/2000/svg">
<mask id="mask0_16_216" style="mask-type:luminance" maskUnits="userSpaceOnUse" x="0" y="0" width="163" height="56">
<path d="M0 0H163V56H0V0Z" fill="white"/>
</mask>
<g mask="url(#mask0_16_216)">
<path fill-rule="evenodd" clip-rule="evenodd" d="M50.9378 4.2207C51.0396 4.01424 51.0396 3.91168 51.0396 3.7059C50.9378 3.49944 50.6321 3.7059 50.3265 3.7059C48.3909 4.83804 46.7609 6.07342 44.9271 7.30879C37.8978 -0.515014 25.9784 -2.47097 16.504 3.08788C16.4021 3.08788 16.4021 3.19111 16.3003 3.19111V3.29366C25.5709 -2.05805 37.3884 0.102335 44.1121 8.02937C43.1953 8.74995 42.2784 9.47053 41.2596 10.2937C39.9353 11.3232 38.3053 13.176 36.879 14.103C36.3696 14.103 36.3696 13.6914 36.2678 13.2792C36.064 12.2496 36.064 11.9413 35.1471 11.4265C34.3321 11.2207 33.7209 11.3232 33.1096 11.9406C32.3965 12.5586 32.2946 12.8676 32.4984 13.794C32.4984 14.103 32.7021 14.4113 33.1096 14.7204C33.2115 14.9261 33.4153 14.8236 33.4153 15.1319C33.3134 15.4409 33.1096 15.8525 32.804 16.1615C31.7853 16.5731 31.4796 16.3673 30.359 15.9557C30.1553 15.4409 29.9515 15.1326 30.1553 14.6171C30.9703 13.485 31.6834 12.2496 32.4984 10.7059C33.0078 9.05896 32.804 7.10301 31.8871 5.66185C30.6646 3.80845 29.7478 3.39689 27.6084 2.77886C25.1634 2.26474 23.6353 3.50012 22.4128 4.63226C19.5603 7.72036 18.6434 11.7348 16.4021 15.8525C15.0778 18.7348 13.5496 21.412 12.1234 24.2937C10.9009 26.7644 9.57651 29.2351 8.15026 31.6027C6.52026 28.5146 5.60339 25.3232 5.60339 22.0287H5.50151C5.50151 25.4265 6.21464 28.8229 7.94651 32.0142C6.72401 34.176 5.50151 36.2351 4.27901 38.3969C2.95464 40.6618 1.42651 42.9261 0.102134 45.2937C0.000259303 45.6027 0.000259306 45.8084 0.204009 45.9117C1.22276 45.7059 4.58464 41.0734 5.19589 40.147C6.62214 38.1904 7.94651 36.3377 9.16901 34.2792C9.27089 34.3824 9.37276 34.5882 9.47464 34.6908C7.84464 37.2647 5.90901 40.2503 6.11276 40.6618C7.13151 40.6618 7.84464 39.3232 8.76151 38.3969C9.37276 37.5737 9.98401 36.8525 10.5953 36.0287C11.8178 37.4705 13.1421 38.7059 14.5684 39.7348C13.1421 41.9998 11.9196 44.4705 10.9009 47.7644C8.86339 48.8965 9.06714 48.485 8.76151 52.1904C8.76151 53.3239 8.65964 54.5586 8.65964 55.6908C8.96526 56.3088 9.06714 55.5882 9.37276 54.9702C10.2896 52.9117 11.1046 50.8525 11.9196 48.794C13.5496 46.0142 15.0778 43.4409 16.8096 41.0734C23.6353 44.8821 32.2946 45.0879 39.5278 40.7644C50.2246 34.5882 53.7903 20.9998 47.474 10.5001C46.9555 9.66991 46.3767 8.87841 45.7421 8.13192L47.5759 6.58821C48.5946 5.76508 49.6134 5.0445 50.9378 4.2207ZM9.47464 33.7644C10.5953 32.1175 11.614 30.3673 12.6328 28.5146C13.6515 26.8676 14.7721 25.22 15.8928 23.4705C16.1984 22.8525 16.6059 22.4409 16.4021 23.3673C15.7909 24.2937 15.2815 25.22 14.5684 26.3528C13.6515 27.8965 12.7346 29.3384 11.8178 30.7789C11.614 31.1904 10.6971 32.529 9.67839 34.176C9.67839 34.0734 9.57651 33.9702 9.47464 33.7644ZM10.799 35.5146L11.1046 35.2056C14.1609 30.9853 17.2171 26.6618 19.5603 22.0287C19.764 21.6171 20.0696 21.7204 19.9678 22.1319C18.949 23.9853 17.9303 25.6323 16.9115 27.485C15.8928 29.3377 14.5684 31.3969 13.3459 33.2496C12.8365 34.0727 11.614 35.5146 12.8365 34.794C16.7078 31.1911 20.3753 25.3232 23.024 20.6908C23.6353 20.2792 23.4315 20.5882 23.1259 21.2056C21.2921 24.3969 19.3565 27.6908 17.1153 30.7795C17.0134 32.6323 19.9678 28.9261 21.5978 26.9702C23.6353 24.5001 25.2653 21.9261 26.6915 18.9413C27.3028 18.4265 27.3028 18.4265 27.2009 19.3528C26.1821 21.8236 25.0615 24.2937 23.6353 26.8676C20.9865 31.0879 18.4396 35.2056 15.0778 39.1175C13.4478 38.1911 12.0215 36.9557 10.799 35.5146ZM46.1496 10.7059C52.2621 20.794 48.7984 33.8676 38.509 39.9406C31.6834 43.955 23.6353 43.8525 17.1153 40.4554C19.764 36.9557 22.6165 33.7644 26.3859 30.7795C28.1178 30.1615 30.7665 29.1319 32.2946 29.0294C31.5815 29.6467 30.8684 29.9557 30.0534 30.5731C29.1365 31.2937 27.5065 32.1175 26.1821 33.6618C25.7746 33.3528 25.2653 33.9702 24.8578 34.2792C24.0428 35.1023 20.1715 38.0879 20.9865 38.8084C22.9221 37.3673 24.7559 35.9261 26.6915 34.794C31.2759 32.1175 35.6565 29.5442 40.954 27.485C42.3803 26.8676 43.2971 26.6618 41.4634 26.0438C38.8146 25.4265 36.6753 25.3232 34.2303 25.4265C32.7021 25.6323 31.174 25.9413 29.544 26.0438C29.0346 26.0438 29.1365 25.7348 29.3403 25.4265C30.0534 24.9117 30.359 24.5001 30.9703 23.8821C33.0078 22.2351 34.8415 20.176 34.8415 17.7059C35.9621 17.1911 37.1846 16.2647 37.9996 15.4409C38.9165 14.7204 39.6296 13.794 40.5465 12.9702C41.9728 11.6323 43.399 10.0879 44.9271 8.64672C45.3346 9.46985 45.7421 10.0879 46.1496 10.7059Z" fill="white"/>
<path d="M62.5955 5.0272C63.8424 5.0272 65.1845 5.22151 66.0477 5.99674C66.8151 6.67481 67.2946 7.83732 67.2946 9.0005C67.2946 10.2602 66.8151 11.229 66.2392 11.8106C65.2802 12.7795 64.0339 12.9731 61.828 13.0703V14.8144C61.828 15.6861 61.828 16.8493 62.3075 18.4962H59.3348C59.6228 17.5273 59.8143 16.7521 59.8143 14.8144V8.80618C59.8143 7.74016 59.7192 6.96561 59.6228 6.38402L59.3348 4.93071H62.5948L62.5955 5.0272ZM63.9382 11.5198C64.6092 11.0354 64.9929 10.3566 64.9929 9.29129C64.9929 7.06209 63.6502 6.28686 62.4033 6.28686H61.7323V12.0043C62.6912 12.0043 63.4587 11.9071 63.9382 11.5198ZM72.9521 16.8493L73.6231 15.3953L70.7462 8.51606C70.0751 6.96561 69.4999 5.89958 68.6367 4.93071H72.4726C72.4726 5.12435 72.3768 5.31799 72.3768 5.41515C72.3768 6.28686 72.6641 7.15924 73.0478 8.03163L74.8701 12.7795L76.4043 8.80618C76.788 7.83732 77.1711 6.67414 77.1711 5.70594C77.1711 5.41515 77.1711 5.12435 77.0753 4.93004H80.4317C79.6643 6.09322 78.9933 7.54652 78.2265 9.29062L75.2538 16.655C74.3906 18.787 73.2394 19.4651 71.1299 19.4651C70.8426 19.4651 70.5546 19.3686 70.1709 19.3686C71.6094 18.8842 72.4726 18.0118 72.9521 16.8493ZM91.9389 7.64368C90.6926 6.77129 89.5414 6.38402 88.2951 6.38402C85.1302 6.38402 83.596 8.80618 83.596 11.7135C83.596 14.9115 85.3224 16.9458 88.1029 16.9458C89.2541 16.9458 90.6926 16.5585 91.6516 15.7832L92.3226 15.2988L92.2268 17.5273C90.4046 18.3997 89.2541 18.4962 88.1029 18.4962C84.1712 18.4962 81.4865 15.6861 81.4865 11.8099C81.4865 8.03163 83.9797 4.63992 88.5824 4.63992C89.7336 4.63992 90.7884 4.83356 91.9389 5.22151V7.64368ZM105.268 7.64368C104.022 6.77129 102.871 6.38402 101.624 6.38402C98.4595 6.38402 96.9253 8.80618 96.9253 11.7135C96.9253 14.9115 98.6517 16.9458 101.432 16.9458C102.583 16.9458 104.022 16.5585 104.981 15.7832L105.652 15.2988L105.556 17.5273C103.734 18.3997 102.583 18.4962 101.432 18.4962C97.5006 18.4962 94.8158 15.6861 94.8158 11.8099C94.8158 8.03163 97.309 4.63992 101.912 4.63992C103.063 4.63992 104.118 4.83356 105.364 5.22151V7.64368H105.268ZM108.529 18.4962C109.008 17.0429 109.008 15.8804 109.008 14.3299V8.61255C109.008 7.2564 108.913 6.19038 108.529 5.0272H111.502C111.214 5.89958 111.022 7.2564 111.022 8.22527V11.3262L113.515 7.83799C114.283 6.77197 114.666 5.99606 114.762 5.12435H117.831C116.825 6.34831 115.865 7.60884 114.954 8.90334L113.227 11.4227C114.858 14.0391 116.872 16.8493 118.502 18.5934H116.104C114.186 16.7521 112.461 14.4264 111.022 12.1979V14.3299C111.022 15.6861 111.118 17.3337 111.502 18.5934H108.529V18.4962ZM124.063 5.0272C123.776 6.09322 123.584 7.06209 123.584 8.51539V14.1356L128.666 7.93447C129.146 7.35288 129.338 6.77197 129.338 6.28686C129.334 5.88243 129.235 5.48447 129.05 5.12435H132.023C131.543 6.57765 131.543 7.64368 131.543 9.0005V13.942C131.543 15.8804 131.64 17.3337 132.023 18.4962H129.05C129.434 17.3337 129.529 15.5896 129.529 14.2328V9.19414L124.639 15.2017C124.063 15.8804 123.776 16.4613 123.776 17.2365C123.776 17.6245 123.872 18.0118 123.968 18.4962H120.995C121.282 17.4302 121.474 16.1705 121.474 15.008V9.28994C121.474 7.74016 121.474 6.38334 120.995 5.02652L124.063 5.0272ZM138.928 5.0272C138.64 6.09322 138.448 7.06209 138.448 8.51539V14.1356L143.53 7.93447C144.01 7.35288 144.201 6.77129 144.201 6.28686C144.197 5.88252 144.099 5.48461 143.914 5.12435H146.887C146.407 6.57765 146.407 7.64368 146.407 9.0005V13.942C146.407 15.8797 146.503 17.3337 146.887 18.4962H143.914C144.298 17.3337 144.394 15.5889 144.394 14.2321V9.19414L139.503 15.2017C138.928 15.8797 138.64 16.4613 138.64 17.2365C138.64 17.6238 138.735 18.0118 138.928 18.4962H135.955C136.242 17.4302 136.434 16.1705 136.434 15.008V9.28994C136.434 7.73949 136.434 6.38334 135.955 5.02652L138.928 5.0272ZM140.558 2.02344V2.31356C140.558 2.9923 141.037 3.18594 141.517 3.18594C141.996 3.18594 142.476 2.89582 142.476 2.31423V2.02344H144.489C144.01 3.57322 142.859 4.05765 141.421 4.05765C139.982 4.05765 138.64 3.5739 138.448 2.02344H140.558ZM59.0475 25.279C60.1023 24.7945 61.157 24.6009 62.4997 24.6009C66.0477 24.6009 69.1162 27.0231 69.1162 31.5773C69.1162 35.6471 66.0477 38.4572 62.3075 38.4572C61.0612 38.4572 59.815 38.167 58.7595 37.3911V35.4534C59.91 36.3251 60.9648 36.8096 62.4997 36.8096C65.0887 36.8096 66.9102 34.6782 66.9102 31.9652C64.9929 31.9652 63.3623 32.1589 61.4443 32.8369L62.2117 30.5112H66.9102C66.6229 27.799 64.6092 26.1513 62.3075 26.1513C61.157 26.1513 59.239 26.7323 58.3758 27.8954L59.0475 25.279ZM72.4726 38.2635C72.9521 36.8102 72.9521 35.647 72.9521 34.0966V28.4764C72.9521 27.1202 72.8563 26.0542 72.4726 24.8917H75.4453C75.158 25.7634 74.9658 27.1202 74.9658 28.0891V30.9964L77.459 27.5082C78.2265 26.4421 78.6102 25.6662 78.706 24.7945H81.7745C80.7689 26.0185 79.8092 27.279 78.8975 28.5735L77.2675 30.9957C78.8017 33.6122 80.9112 36.4223 82.5412 38.1664H80.1445C78.2265 36.3251 76.4043 34.0001 75.0616 31.7709V33.903C75.0616 35.2591 75.1573 36.9067 75.5411 38.167H72.4726V38.2635ZM93.7611 27.411C92.6099 26.5386 91.3636 26.1513 90.2131 26.1513C87.0482 26.1513 85.5139 28.5735 85.5139 31.4808C85.5139 34.6782 87.2404 36.7131 90.0209 36.7131C91.1721 36.7131 92.6099 36.3251 93.5689 35.5506L94.2406 35.0661L94.1448 37.2947C92.3226 38.1664 91.1721 38.2635 90.0209 38.2635C86.0892 38.2635 83.4045 35.4534 83.4045 31.5773C83.4045 27.799 85.8977 24.4072 90.5004 24.4072C91.6509 24.4072 92.7063 24.6009 93.8568 24.9882V27.4103L93.7611 27.411ZM107.666 24.7945C107.378 25.6669 107.186 26.6358 107.186 27.8954V33.7093C107.186 36.035 107.282 37.1004 107.666 38.2635H104.693C105.077 37.1975 105.172 36.3251 105.172 34.581V26.5386H99.515V34.2909C99.515 36.2286 99.7065 37.1975 99.9945 38.36H97.0218C97.4048 37.294 97.5012 36.5194 97.5012 34.3874V29.0586C97.5012 26.8301 97.309 25.9577 97.0218 24.8924H107.666V24.7945ZM114.858 24.7945C116.105 24.7945 117.447 24.9882 118.31 25.7634C119.078 26.4421 119.557 27.6046 119.557 28.7671C119.557 30.0268 119.078 30.9964 118.502 31.5773C117.543 32.5461 116.296 32.7404 114.091 32.8369V34.581C114.091 35.4534 114.091 36.6159 114.571 38.2635H111.597C111.885 37.2947 112.077 36.5194 112.077 34.581V28.6707C112.077 27.5075 111.981 26.8294 111.885 26.2485L111.597 24.7945H114.858ZM116.201 31.2865C116.872 30.802 117.255 30.124 117.255 29.0579C117.255 26.8294 115.913 26.0542 114.666 26.0542H113.995V31.7716C114.954 31.7716 115.721 31.6744 116.201 31.2865ZM130.01 24.7945L128.955 26.9266C127.9 26.345 126.845 26.2478 125.694 26.2478H125.119V30.6084H129.434L128.187 32.7404C127.228 32.1589 126.078 32.0617 125.023 32.0617V36.8102C125.886 36.8102 129.051 36.6159 130.681 35.647L129.626 38.2635H122.53C122.913 37.2947 123.009 35.8414 123.009 33.8058V28.7671C123.009 27.0231 122.817 26.1513 122.53 24.7945H130.01ZM143.242 27.411C141.996 26.5386 140.845 26.1513 139.599 26.1513C136.434 26.1513 134.9 28.5735 134.9 31.4808C134.9 34.6782 136.626 36.7131 139.407 36.7131C140.558 36.7131 141.996 36.3251 142.955 35.5506L143.626 35.0661L143.53 37.2947C141.708 38.1664 140.558 38.2635 139.407 38.2635C135.475 38.2635 132.79 35.4534 132.79 31.5773C132.79 27.799 135.283 24.4072 139.887 24.4072C141.037 24.4072 142.092 24.6009 143.242 24.9882V27.411ZM156.476 27.411C155.23 26.5386 154.079 26.1513 152.832 26.1513C149.667 26.1513 148.133 28.5735 148.133 31.4808C148.133 34.6782 149.86 36.7131 152.64 36.7131C153.791 36.7131 155.23 36.3251 156.189 35.5506L156.86 35.0661L156.764 37.2947C154.942 38.1664 153.791 38.2635 152.64 38.2635C148.708 38.2635 146.024 35.4534 146.024 31.5773C146.024 27.799 148.517 24.4072 153.12 24.4072C154.271 24.4072 155.325 24.6009 156.572 24.9882V27.4103L156.476 27.411Z" fill="white"/>
</g>
</svg>
