<svg width="145" height="50" viewBox="0 0 145 50" fill="none" xmlns="http://www.w3.org/2000/svg">
<g clip-path="url(#clip0_3_1777)">
<path fill-rule="evenodd" clip-rule="evenodd" d="M37.5032 18.1269C36.0581 9.20845 27.6402 3.27129 18.7922 4.7394C18.7373 4.75005 18.6857 4.76152 18.6292 4.7689C18.6333 4.83526 18.6292 4.75005 18.6292 4.81723C27.174 3.40483 35.2912 9.31168 36.6881 17.9155C38.0849 26.5235 32.1936 34.6906 23.6422 36.1063C15.0236 37.5482 6.92853 31.7184 5.52432 23.0998C5.06554 20.257 5.34245 17.4674 6.30262 14.9555C6.23953 14.9326 6.29115 14.9588 6.23216 14.9367C5.13159 17.6432 4.78945 20.5985 5.2425 23.4848C6.69504 32.4082 15.0728 38.4363 23.9871 36.951C32.8384 35.4796 38.941 27.038 37.4926 18.1195L37.5032 18.1277V18.1269Z" fill="#ED001D"/>
<path fill-rule="evenodd" clip-rule="evenodd" d="M19.1445 22.3805L19.7819 21.4105C19.4484 17.6935 17.4994 16.0222 15.7249 15.1481C14.8065 14.6885 13.8357 14.4476 12.8051 14.3214C12.5093 14.2846 12.1529 14.2657 11.6974 14.2248C11.9457 13.9364 12.1128 13.7357 12.2906 13.5399C14.1831 11.468 16.0731 9.38951 17.9844 7.33317C18.1368 7.16932 18.2482 7.01039 18.3039 6.84408C18.426 6.47295 18.122 6.10265 17.7329 6.10265H5.15075C4.90988 7.42165 4.66902 8.71854 4.43144 10.0048C4.73948 10.1522 4.91316 10.0973 5.06554 9.85976C5.39161 9.34855 5.89135 9.05198 6.43206 8.81931C7.0547 8.54895 7.70355 8.43671 8.3737 8.43344C10.1007 8.42934 11.8269 8.43344 13.5539 8.43344C13.6833 8.43344 13.8095 8.47768 13.9873 8.51536C13.8611 8.66693 13.7874 8.7636 13.7054 8.85617C12.7166 9.92694 11.7196 10.9862 10.7381 12.0611C9.85246 13.0278 8.98897 14.0142 8.10007 14.9695C7.83627 15.2554 7.78466 15.529 7.94769 15.8625C7.97391 15.9149 7.99603 15.9665 8.01815 16.0222C8.04107 16.0775 8.08117 16.1239 8.13252 16.1546C8.18387 16.1853 8.24373 16.1986 8.30325 16.1926C8.91523 16.1484 9.50756 16.0927 10.104 16.0779C10.793 16.0632 11.89 16.0927 12.5609 16.2778C13.1164 16.3516 13.6014 16.4998 14.0356 16.7006C13.9725 16.8194 13.9127 16.9341 13.8472 17.0528C12.8575 19.0756 11.731 21.0426 10.7422 23.0744C8.76695 26.453 6.79172 29.7694 4.82058 33.1488C3.88663 34.6792 2.89041 36.2128 1.95318 37.7514C1.89747 37.8399 1.61975 38.2667 1.76803 38.3658C1.88273 38.4478 2.19404 38.2479 2.43491 38.0258C3.44259 37.0993 5.12453 34.8389 5.51695 34.29C7.48247 31.6709 9.29496 28.9404 10.9454 26.1122C11.7236 24.9669 12.4978 23.7445 13.3384 22.5288C13.5498 22.1216 13.8504 22.0659 13.6907 22.4591C13.2688 23.1334 12.846 23.8109 12.3496 24.5523C11.7196 25.6378 11.0191 26.6496 10.3784 27.7351C9.95569 28.5397 5.82499 34.4203 6.14696 34.7013C6.4845 34.9946 7.4332 33.8165 8.05174 33.0792C8.61866 32.3336 9.25195 31.5889 9.81887 30.8516C12.0718 27.8761 14.2576 24.7637 15.951 21.4465C16.0919 21.1762 16.3287 21.3359 16.2361 21.5104C15.5283 22.8032 14.7508 24.0223 13.9758 25.3044C13.1559 26.709 12.2872 28.0846 11.3714 29.4285C10.7971 30.2216 10.5857 30.4813 10.7045 30.5591C10.9675 30.7328 11.5754 29.9848 11.8531 29.6989C13.762 27.7351 15.5725 25.1233 17.0849 22.7C17.1733 22.5476 17.2323 22.9548 17.0996 23.1514C16.1698 24.6752 15.1907 26.1908 14.1175 27.6721C13.7128 28.3578 15.2915 27.5311 16.9071 25.5158C16.9191 25.5019 16.9301 25.4871 16.9399 25.4715L19.1486 22.3698L19.1445 22.3805Z" fill="#ED001D"/>
<path fill-rule="evenodd" clip-rule="evenodd" d="M38.7526 8.45146C38.556 8.15161 36.1178 10.0343 34.7808 10.983C33.9288 11.6605 33.0874 12.2692 32.2428 12.9467C31.4423 13.5472 29.9267 14.8916 29.3786 15.3881C29.3177 15.4408 29.2684 15.5056 29.2338 15.5784C29.1993 15.6512 29.1802 15.7303 29.1779 15.8108C29.1558 16.4482 28.797 16.7186 28.797 16.7186C28.9854 16.0853 28.9117 15.4258 28.7707 14.9695C28.6069 14.4509 28.3963 13.6652 27.3551 13.6988H27.2215C26.8955 13.7176 26.0549 13.8504 25.8067 14.7401C25.7436 14.9588 25.7698 15.6847 26.3474 16.096C26.4211 16.1885 26.5358 16.1484 26.5358 16.3253C26.4514 16.5998 26.34 16.8931 26.1139 17.0668H26.1106C25.4995 17.2822 25.2357 17.2372 24.7654 17.0782C24.432 16.9635 24.1723 16.6703 24.151 16.3188C24.1405 16.203 24.1608 16.0866 24.2099 15.9813C24.8348 15.0951 25.3992 14.1678 25.8993 13.2056C26.3957 12.2094 26.6325 9.62627 24.1837 8.29252C21.2934 6.71791 19.4853 8.13686 18.5743 8.94465C17.2626 10.3865 16.4991 12.0718 15.6913 13.8659C15.688 13.8766 15.6094 14.0691 15.5766 14.1691C15.8142 14.2657 16.051 14.3739 16.2951 14.4918C18.7668 15.7142 20.2267 17.7672 20.6781 20.6133C20.9526 20.1382 21.2156 19.6573 21.4646 19.1682C21.4817 19.1365 21.5059 19.1093 21.5354 19.0887C21.5648 19.0681 21.5986 19.0546 21.6342 19.0494C21.4679 19.5131 21.0304 20.7092 20.8313 21.0762C20.8117 21.1098 20.5159 21.7316 20.3152 22.1437C20.203 22.3778 20.053 22.5918 19.8712 22.777C19.2076 23.4553 17.5109 25.2708 17.0775 26.5308C16.903 27.0421 15.3874 30.4993 14.8909 31.1555C14.251 32.0081 13.5747 32.8327 12.864 33.6272C11.7343 35.3239 10.8233 37.1468 9.97453 39.6488C8.49167 40.4598 8.63668 40.1813 8.41794 42.8242C8.41794 43.6394 8.35158 44.5176 8.35158 45.3254C8.56295 45.7326 8.6334 45.255 8.84477 44.788C9.47806 43.3019 10.1146 41.8829 10.6783 40.3861C12.1349 37.8997 13.6128 35.6574 15.2874 33.5748L16.7211 31.8708C17.007 31.5332 17.2618 31.1924 17.4994 30.8516L17.4888 30.8811C17.4888 30.8811 19.4746 28.9509 19.4779 28.9435C19.8187 28.6543 20.212 28.3725 20.597 28.0915C21.0976 27.7271 21.6499 27.4397 22.2355 27.2387C23.3391 26.861 24.6245 26.4194 25.5027 26.3342C25.5396 26.3342 25.5543 26.3793 25.5249 26.4014C25.0505 26.7643 24.5319 27.0273 23.9986 27.4058C23.3022 27.9424 22.1831 28.4766 21.2008 29.6178L21.1566 29.6252C20.8747 29.458 20.4709 29.8513 20.1972 30.1143C19.5746 30.7107 16.9038 32.749 17.3478 33.3307L17.4036 33.338C18.8078 32.3263 20.1415 31.3259 21.5342 30.5141C24.8432 28.6216 28.0924 26.7946 31.9683 25.3077C33.0202 24.8407 33.6576 24.7006 32.3206 24.2893C30.4199 23.8183 28.7929 23.7552 27.0331 23.8887C25.9025 24.019 24.7801 24.2222 23.6496 24.2893C23.3137 24.3115 23.2391 24.1517 23.5128 23.9633C24.0019 23.6331 27.5517 20.6764 27.5255 18.4267L27.5476 18.3972C28.389 18.0564 29.2156 17.3896 29.8489 16.7817C30.4863 16.2442 31.045 15.6363 31.6832 15.0285C33.3053 13.5399 34.9439 11.8866 36.6889 10.4267C37.4893 9.78193 39.0041 8.81111 38.76 8.44081L38.7526 8.45146Z" fill="#ED001D"/>
<path d="M44.7881 10.4128C44.7881 10.4742 44.8102 10.5275 44.8536 10.5717C44.8987 10.6069 44.965 10.6241 45.0543 10.6241H48.718C48.8245 10.6241 48.9491 10.62 49.0908 10.611C49.2415 10.5938 49.3931 10.5717 49.5439 10.5455C49.6883 10.5204 49.8306 10.4848 49.9699 10.439C50.1034 10.3865 50.2099 10.3202 50.2894 10.2407C50.4409 10.126 50.5515 9.9933 50.6228 9.84338C50.6851 9.67625 50.7162 9.50748 50.7162 9.34035V9.19535C50.7162 9.11588 50.708 9.04051 50.69 8.97005C50.6729 8.89347 50.6505 8.81818 50.6228 8.74475C50.5331 8.58818 50.421 8.44551 50.2902 8.3212C50.193 8.23716 50.0795 8.17413 49.9568 8.13605C49.8233 8.08314 49.685 8.04336 49.5439 8.01725C49.3996 7.98156 49.2523 7.95935 49.1039 7.95089C48.9755 7.94258 48.8468 7.9382 48.718 7.93779H45.0674C44.9691 7.93779 44.8987 7.95499 44.8544 7.99022C44.8322 8.01283 44.8148 8.03977 44.8034 8.06936C44.792 8.09895 44.7868 8.13057 44.7881 8.16226V10.4128ZM44.7881 15.615C44.7881 15.6408 44.782 15.6661 44.7703 15.6891C44.7586 15.712 44.7417 15.7318 44.7209 15.7469C44.6857 15.7822 44.6324 15.8002 44.5611 15.8002H42.8563C42.8246 15.8023 42.7927 15.7979 42.7629 15.7871L42.6826 15.7469C42.6651 15.7298 42.6514 15.7092 42.6422 15.6865C42.6331 15.6638 42.6287 15.6395 42.6293 15.615V6.71955C42.6277 6.67235 42.6418 6.62595 42.6695 6.58765C42.7149 6.55189 42.7714 6.53306 42.8292 6.5344H48.5312C48.8688 6.5344 49.2465 6.55242 49.6635 6.58765C50.0813 6.62288 50.4852 6.69743 50.876 6.81213C51.2758 6.92682 51.6403 7.09477 51.9689 7.31515C52.2966 7.52734 52.5366 7.81408 52.6882 8.17537C52.7414 8.33431 52.7857 8.50225 52.8209 8.67839C52.8657 8.85597 52.8882 9.03842 52.8881 9.22156V9.35346C52.8881 9.71557 52.8078 10.0638 52.648 10.3997C52.4973 10.7356 52.2753 11.0084 51.982 11.2206C51.7552 11.4046 51.4983 11.5479 51.2225 11.6441C50.9382 11.7498 50.6408 11.8334 50.3295 11.8956C50.019 11.9481 49.7085 11.9833 49.3972 12.0013C49.0859 12.0185 48.7975 12.0275 48.5312 12.0275H44.9486C44.8954 12.0275 44.8552 12.0406 44.8282 12.0677C44.8113 12.0795 44.7976 12.0954 44.7883 12.1138C44.779 12.1323 44.7744 12.1527 44.775 12.1733L44.7889 15.6142L44.7881 15.615ZM64.234 6.5344C64.3323 6.5344 64.3855 6.55652 64.3945 6.59994C64.4126 6.645 64.4027 6.69825 64.3675 6.75969L60.544 13.6562C60.349 14.0085 60.1622 14.3223 59.9845 14.5959C59.8157 14.8605 59.6158 15.085 59.3856 15.271C59.1305 15.4586 58.8406 15.5934 58.5327 15.6675C58.1952 15.756 57.7643 15.8002 57.24 15.8002H55.2688C55.1443 15.8002 55.082 15.7388 55.082 15.615V14.609C55.0814 14.5844 55.0858 14.56 55.0949 14.5371C55.1041 14.5143 55.1178 14.4936 55.1353 14.4763C55.1623 14.4411 55.2066 14.4238 55.2688 14.4238H57.1736C57.3334 14.4238 57.4849 14.3796 57.6266 14.2911C57.7864 14.1846 57.8667 14.0748 57.8667 13.9601C57.8636 13.8276 57.8218 13.6988 57.7463 13.5898L53.0699 6.75887C53.0257 6.71463 53.0167 6.6663 53.0437 6.61305C53.0699 6.55979 53.1281 6.53358 53.2166 6.53358H54.9763C55.0206 6.53358 55.0648 6.54177 55.1099 6.55979C55.1541 6.57782 55.1853 6.60895 55.2025 6.65237L58.7998 11.9743C58.9334 12.1504 59.0399 12.2389 59.1193 12.2389C59.2086 12.2389 59.3012 12.1504 59.3995 11.9743L62.3038 6.65237C62.357 6.5729 62.4455 6.53358 62.57 6.53358H64.2356L64.234 6.5344ZM64.4019 10.9551C64.4019 10.3464 64.4822 9.81307 64.6419 9.35346C64.8017 8.89468 65.0237 8.49816 65.308 8.16226C65.5875 7.8221 65.9261 7.53514 66.3075 7.31515C66.6893 7.08576 67.1071 6.90552 67.5593 6.7728C68.021 6.63851 68.4936 6.5453 68.9717 6.49425C69.469 6.43281 69.9712 6.40168 70.4775 6.40168H71.223C71.7654 6.40168 72.3208 6.43691 72.8886 6.50818C73.4486 6.57443 73.9987 6.70755 74.5271 6.9047C75.04 7.09251 75.5176 7.36561 75.9395 7.71249C76.3655 8.05658 76.699 8.50225 76.939 9.04952C77.0095 9.21665 77.0676 9.38541 77.1119 9.55254C77.1561 9.71967 77.1962 9.88844 77.2315 10.0556V10.0818H75.2071C75.1411 9.83987 75.0517 9.60499 74.94 9.3805C74.8289 9.15099 74.6699 8.94791 74.4739 8.7849C74.2725 8.60623 74.0486 8.45475 73.8078 8.33431C73.5413 8.1796 73.2603 8.05119 72.9689 7.95089C72.6644 7.84049 72.3458 7.77348 72.0226 7.75181C71.6687 7.71633 71.3133 7.69883 70.9576 7.69938C70.5398 7.69938 70.1138 7.72969 69.6779 7.79196C69.2527 7.84243 68.8362 7.94933 68.4392 8.10983C68.0593 8.26712 67.7081 8.48608 67.3996 8.75786C67.0981 9.03149 66.8671 9.38459 66.7073 9.81716C66.6638 10.0062 66.6236 10.1961 66.5869 10.3865C66.5608 10.5574 66.5477 10.7299 66.5475 10.9027V11.3262C66.5475 11.5024 66.5606 11.6875 66.5869 11.8817C66.6229 12.0759 66.6631 12.27 66.7073 12.4642C66.7696 12.6583 66.8539 12.8394 66.9604 13.0074C67.0751 13.1745 67.2226 13.3383 67.3996 13.4973C67.8616 13.938 68.3679 14.2379 68.9185 14.3968C69.469 14.5467 70.0908 14.6221 70.7839 14.6221C71.237 14.6221 71.6409 14.609 71.9964 14.582C72.3307 14.5607 72.6591 14.4849 72.9689 14.3575C73.2591 14.2486 73.5397 14.1157 73.8078 13.9601C74.0831 13.8012 74.2961 13.6472 74.4468 13.4973C74.6336 13.3293 74.7762 13.1663 74.8737 13.0074C74.9819 12.8365 75.0711 12.6544 75.1399 12.4642C75.1489 12.4199 75.1579 12.3806 75.1669 12.3454C75.1751 12.3102 75.185 12.27 75.1932 12.2258H77.2315C77.0988 12.8877 76.8808 13.453 76.5785 13.9208C76.277 14.3796 75.824 14.772 75.2202 15.0989C74.9285 15.27 74.6206 15.4119 74.301 15.5225C73.9694 15.6288 73.6311 15.7128 73.2884 15.774C72.9418 15.8354 72.5912 15.8748 72.2356 15.8928C71.8987 15.919 71.561 15.9324 71.223 15.9329H70.4775C70.1396 15.9323 69.8018 15.9189 69.4649 15.8928C69.1168 15.8748 68.7698 15.8393 68.4253 15.7863C68.0828 15.7256 67.7447 15.6419 67.4135 15.5356C67.0917 15.4243 66.7832 15.2778 66.4935 15.0989C65.7299 14.7016 65.1884 14.1764 64.8689 13.5235C64.5576 12.8615 64.4019 12.125 64.4019 11.3131V10.9551ZM78.4399 10.9551C78.4399 10.3464 78.5202 9.81307 78.6799 9.35346C78.8397 8.89468 79.0617 8.49816 79.346 8.16226C79.6258 7.82236 79.9643 7.53543 80.3455 7.31515C80.7273 7.08576 81.1451 6.90552 81.5973 6.7728C82.059 6.63852 82.5316 6.54531 83.0097 6.49425C83.507 6.43281 84.0092 6.40168 84.5155 6.40168H85.261C85.8034 6.40168 86.358 6.43691 86.9266 6.50818C87.4866 6.5744 88.0367 6.70753 88.5651 6.9047C89.0894 7.09887 89.5597 7.3684 89.9775 7.71249C90.4035 8.05658 90.7369 8.50225 90.977 9.04952C91.0474 9.21665 91.1056 9.38541 91.1498 9.55254C91.1941 9.71967 91.2342 9.88844 91.2695 10.0556V10.0818H89.2451C89.179 9.83992 89.0895 9.60505 88.978 9.3805C88.8667 9.15108 88.7078 8.94804 88.5118 8.7849C88.3105 8.60619 88.0866 8.4547 87.8458 8.33431C87.5792 8.17957 87.2983 8.05116 87.0069 7.95089C86.7023 7.84051 86.3838 7.7735 86.0606 7.75181C85.7064 7.7163 85.3507 7.6988 84.9948 7.69938C84.5778 7.69938 84.1509 7.72969 83.7159 7.79196C83.2907 7.84243 82.8741 7.94933 82.4772 8.10983C82.0973 8.26708 81.746 8.48604 81.4375 8.75786C81.1361 9.03149 80.905 9.38459 80.7453 9.81716C80.7018 10.0062 80.6616 10.1961 80.6248 10.3865C80.5989 10.5574 80.5857 10.7299 80.5855 10.9027V11.3262C80.586 11.5121 80.5991 11.6976 80.6248 11.8817C80.6609 12.0759 80.701 12.27 80.7453 12.4642C80.8075 12.6583 80.8919 12.8394 80.9984 13.0074C81.1131 13.1745 81.2606 13.3383 81.4375 13.4973C81.8996 13.938 82.4059 14.2379 82.9564 14.3968C83.507 14.5467 84.1288 14.6221 84.8219 14.6221C85.2749 14.6221 85.6788 14.609 86.0344 14.582C86.3686 14.5605 86.6971 14.4847 87.0069 14.3575C87.2911 14.251 87.5705 14.1191 87.8458 13.9601C88.0776 13.8332 88.2925 13.6777 88.4856 13.4973C88.6716 13.3293 88.8141 13.1663 88.9116 13.0074C89.0198 12.8365 89.1091 12.6544 89.1779 12.4642C89.186 12.4244 89.195 12.3848 89.2049 12.3454C89.2146 12.3057 89.2233 12.2658 89.2311 12.2258H91.2695C91.1367 12.8877 90.9188 13.453 90.6173 13.9208C90.315 14.3796 89.862 14.772 89.2582 15.0989C88.9665 15.27 88.6586 15.4119 88.339 15.5225C88.0074 15.6288 87.6691 15.7128 87.3264 15.774C86.9798 15.8354 86.6292 15.8748 86.2736 15.8928C85.9367 15.9189 85.5989 15.9323 85.261 15.9329H84.5155C84.1776 15.9323 83.8398 15.9189 83.5029 15.8928C83.1548 15.8748 82.8078 15.8393 82.4633 15.7863C82.1207 15.7256 81.7827 15.6419 81.4515 15.5356C81.1297 15.4243 80.8211 15.2779 80.5314 15.0989C79.7679 14.7016 79.2264 14.1764 78.9069 13.5235C78.5955 12.8615 78.4399 12.125 78.4399 11.3131V10.9551ZM100.545 15.8002C100.477 15.802 100.41 15.7932 100.345 15.774C100.309 15.7527 100.274 15.7306 100.239 15.7076L94.9225 11.6302C94.8769 11.5931 94.8213 11.5703 94.7628 11.5646C94.6743 11.5646 94.63 11.6171 94.63 11.7236V15.615C94.63 15.7379 94.5539 15.8002 94.4031 15.8002H92.7245C92.6583 15.8014 92.5932 15.7829 92.5377 15.7469C92.517 15.7317 92.5002 15.7119 92.4887 15.6889C92.4772 15.666 92.4712 15.6407 92.4713 15.615V6.71955C92.4713 6.66712 92.4934 6.62288 92.5377 6.58765C92.5932 6.55166 92.6583 6.53312 92.7245 6.5344H94.4031C94.5539 6.5344 94.63 6.59584 94.63 6.71955V10.108C94.63 10.1875 94.6612 10.2366 94.7226 10.2538C94.7849 10.2719 94.8521 10.2579 94.9225 10.2145L100.052 6.61387C100.141 6.56311 100.242 6.53577 100.345 6.5344H102.29C102.379 6.5344 102.437 6.56061 102.463 6.61387C102.499 6.65811 102.481 6.70644 102.41 6.75969L96.7749 10.7306C96.6593 10.8183 96.6593 10.9068 96.7749 10.9953L102.783 15.5749C102.846 15.6191 102.863 15.6675 102.837 15.7207C102.819 15.774 102.761 15.8002 102.663 15.8002H100.545ZM113.921 15.8002C113.85 15.8002 113.801 15.7822 113.774 15.7469C113.749 15.7076 113.735 15.6619 113.734 15.615V8.99545C113.734 8.92499 113.703 8.88075 113.641 8.86355C113.613 8.85413 113.584 8.85283 113.555 8.8598C113.527 8.86677 113.501 8.88172 113.481 8.90287L106.487 15.7068C106.455 15.7377 106.418 15.7618 106.377 15.7777C106.335 15.7936 106.291 15.801 106.247 15.7994H104.302C104.253 15.7974 104.206 15.7786 104.169 15.7461C104.136 15.7096 104.118 15.663 104.115 15.6142V6.71955C104.115 6.6951 104.119 6.6708 104.128 6.64812C104.138 6.62545 104.151 6.60487 104.169 6.58765C104.206 6.55508 104.253 6.53627 104.302 6.5344H106.074C106.145 6.5344 106.194 6.55652 106.221 6.59994C106.237 6.61521 106.251 6.63369 106.26 6.65425C106.269 6.67482 106.274 6.69704 106.274 6.71955V13.3252C106.274 13.4047 106.3 13.453 106.354 13.4702C106.416 13.4792 106.478 13.4571 106.54 13.4047L113.481 6.64008C113.579 6.56963 113.663 6.5344 113.734 6.5344H115.692C115.764 6.5344 115.813 6.55652 115.839 6.59994C115.866 6.63411 115.88 6.67628 115.879 6.71955V15.615C115.878 15.6619 115.864 15.7076 115.839 15.7469C115.813 15.7822 115.764 15.8002 115.692 15.8002H113.921ZM127.555 15.8002C127.485 15.8002 127.436 15.7822 127.409 15.7469C127.384 15.7074 127.37 15.6618 127.369 15.615V8.99545C127.369 8.92499 127.338 8.88075 127.276 8.86355C127.248 8.85413 127.218 8.85283 127.19 8.8598C127.162 8.86677 127.136 8.88172 127.116 8.90287L120.121 15.7068C120.09 15.7377 120.052 15.7619 120.011 15.7778C119.97 15.7937 119.926 15.8011 119.882 15.7994H117.937C117.888 15.7976 117.841 15.7788 117.804 15.7461C117.771 15.7096 117.752 15.663 117.75 15.6142V6.71955C117.75 6.6951 117.754 6.6708 117.763 6.64812C117.773 6.62545 117.786 6.60487 117.804 6.58765C117.841 6.55496 117.888 6.53614 117.937 6.5344H119.708C119.78 6.5344 119.829 6.55652 119.855 6.59994C119.872 6.61508 119.885 6.63354 119.894 6.65413C119.903 6.67473 119.908 6.69701 119.908 6.71955V13.3252C119.908 13.4047 119.935 13.453 119.989 13.4702C120.051 13.4792 120.113 13.4571 120.174 13.4047L127.116 6.64008C127.214 6.56963 127.298 6.5344 127.369 6.5344H129.327C129.399 6.5344 129.448 6.55652 129.474 6.59994C129.5 6.63411 129.515 6.67628 129.514 6.71955V15.615C129.513 15.6619 129.499 15.7076 129.474 15.7469C129.448 15.7822 129.399 15.8002 129.327 15.8002H127.555ZM120.774 4.33715C120.774 4.23065 120.827 4.17821 120.934 4.17821H121.867C121.974 4.17821 122.04 4.21754 122.067 4.29701C122.102 4.37647 122.151 4.46905 122.213 4.57555C122.284 4.67223 122.4 4.76071 122.559 4.84017C122.728 4.91964 122.999 4.95897 123.372 4.95897C123.754 4.95897 124.029 4.91964 124.198 4.84017C124.367 4.76071 124.487 4.67223 124.558 4.57555C124.629 4.46905 124.678 4.37647 124.704 4.29701C124.731 4.21754 124.793 4.17821 124.891 4.17821H125.823C125.939 4.17821 125.997 4.23146 125.997 4.33715C125.979 4.68943 125.895 4.98109 125.744 5.21048C125.601 5.43168 125.41 5.60782 125.171 5.74054C124.931 5.86343 124.656 5.94781 124.345 5.99205C123.708 6.08116 123.063 6.08116 122.427 5.99205C122.144 5.95399 121.869 5.86898 121.614 5.74054C121.378 5.62051 121.176 5.443 121.027 5.2244C120.877 4.99501 120.792 4.69926 120.774 4.33715ZM55.0591 25.0218C55.0591 25.1627 55.0509 25.3085 55.0329 25.4584C55.0146 25.6129 54.9969 25.7675 54.9796 25.9221C54.9523 26.0914 54.9168 26.2593 54.8731 26.4252C54.8281 26.5923 54.7797 26.7602 54.7257 26.9282C54.5891 27.2633 54.3953 27.5721 54.153 27.8408C53.9139 28.105 53.6409 28.3365 53.3411 28.529C53.0329 28.7266 52.7071 28.8953 52.3678 29.0328C52.0303 29.1647 51.6887 29.2704 51.3421 29.3499C50.9826 29.4328 50.6177 29.4903 50.2501 29.5219C49.8292 29.559 49.4068 29.5768 48.9843 29.5752H48.2117C47.5513 29.5741 46.8919 29.5209 46.2398 29.4163C45.6065 29.3179 44.9914 29.126 44.4145 28.8469C43.8714 28.579 43.3905 28.2003 43.0029 27.7351C42.6121 27.2583 42.354 26.6537 42.2295 25.9221V25.8951H44.2416C44.259 25.938 44.2725 25.9824 44.2818 26.0278C44.29 26.0721 44.3039 26.1163 44.3219 26.1597C44.4989 26.6717 44.7791 27.0691 45.1608 27.3517C45.5687 27.634 46.0123 27.861 46.4798 28.0268C46.7731 28.1325 47.0877 28.2029 47.4253 28.2382C47.7628 28.2652 48.1183 28.2783 48.4911 28.2783C48.9171 28.2783 49.348 28.2513 49.7839 28.1988C50.2034 28.1411 50.6148 28.0344 51.0095 27.881C51.3862 27.7253 51.7332 27.5058 52.0352 27.2321C52.3375 26.9585 52.5677 26.6013 52.7283 26.1597C52.7897 25.9574 52.8348 25.7411 52.861 25.5117H46.0669V24.1214H52.861C52.8425 24.0202 52.8248 23.9189 52.8078 23.8175C52.7989 23.712 52.7718 23.6088 52.7275 23.5127C52.639 23.1506 52.417 22.8065 52.0614 22.4804C51.5912 22.0388 51.0808 21.7431 50.5294 21.5932C49.9789 21.4342 49.362 21.3556 48.6779 21.3556C48.2158 21.3556 47.8078 21.3687 47.4523 21.3949C47.1183 21.4186 46.7902 21.4946 46.4798 21.6202C46.014 21.7977 45.5747 22.0381 45.1739 22.3346C44.7831 22.6172 44.4989 23.0097 44.3219 23.5127C44.3139 23.5525 44.3049 23.5921 44.2949 23.6315C44.2847 23.6724 44.2713 23.7124 44.2547 23.7511H42.2295C42.354 22.9925 42.6121 22.3747 43.0029 21.8979C43.3916 21.4212 43.8776 21.0329 44.4284 20.7592C44.9991 20.4796 45.6105 20.2921 46.2398 20.2037C46.8919 20.0986 47.5513 20.0455 48.2117 20.0448H48.9843C49.3038 20.0448 49.6372 20.0579 49.9838 20.0841C50.3385 20.1021 50.6892 20.1414 51.0357 20.2037C51.3823 20.2561 51.7198 20.3405 52.0483 20.4552C52.3768 20.5609 52.6832 20.7018 52.9675 20.8788C53.5803 21.1876 54.0424 21.5801 54.3529 22.0569C54.6642 22.5329 54.8731 23.0973 54.9796 23.7511C54.9968 23.91 55.0149 24.064 55.0329 24.214C55.0501 24.3647 55.0591 24.5146 55.0591 24.6646V25.0218ZM64.3241 29.4425C64.2568 29.4442 64.1896 29.4354 64.125 29.4163C64.089 29.3952 64.0535 29.3734 64.0185 29.3507L58.7023 25.2733C58.6401 25.229 58.5876 25.2077 58.5426 25.2077C58.4541 25.2077 58.409 25.2602 58.409 25.3659V29.2573C58.409 29.381 58.3337 29.4425 58.1829 29.4425H56.5043C56.4381 29.4441 56.3731 29.4259 56.3175 29.39C56.2968 29.3747 56.2801 29.3547 56.2687 29.3316C56.2573 29.3085 56.2515 29.2831 56.2519 29.2573V20.3626C56.2519 20.3094 56.2732 20.2652 56.3175 20.2299C56.3731 20.1941 56.4381 20.1758 56.5043 20.1775H58.1829C58.3337 20.1775 58.409 20.2389 58.409 20.3626V23.7511C58.409 23.8306 58.4402 23.8789 58.5024 23.8969C58.5647 23.9141 58.6311 23.901 58.7023 23.8568L63.8309 20.2561C63.9207 20.2055 64.0219 20.1784 64.125 20.1775H66.0699C66.1584 20.1775 66.2166 20.2037 66.2428 20.2561C66.2788 20.3004 66.2608 20.3487 66.1895 20.402L60.5539 24.3729C60.4392 24.4614 60.4392 24.5499 60.5539 24.6375L66.5623 29.2172C66.6245 29.2622 66.6426 29.3106 66.6164 29.363C66.5983 29.4163 66.5402 29.4425 66.4427 29.4425H64.3241ZM67.629 24.5982C67.629 23.9895 67.7084 23.4553 67.869 22.9966C68.0288 22.5378 68.2508 22.1404 68.5351 21.8054C68.8146 21.4652 69.1532 21.1782 69.5345 20.9582C69.9267 20.7241 70.3475 20.5415 70.7864 20.4151C71.2481 20.2811 71.7207 20.1881 72.1988 20.1373C72.6961 20.0759 73.1983 20.0448 73.7038 20.0448H74.4493C74.9916 20.0448 75.5471 20.08 76.1148 20.1513C76.6749 20.2175 77.225 20.3506 77.7533 20.5478C78.2662 20.7354 78.7437 21.0082 79.1657 21.3548C79.5918 21.6989 79.9252 22.1445 80.1652 22.6918C80.2365 22.8597 80.2939 23.0277 80.3381 23.1948C80.3832 23.3628 80.4225 23.5307 80.4585 23.6978V23.7249H78.4333C78.3677 23.4827 78.2785 23.2476 78.1671 23.0228C78.0555 22.7933 77.8963 22.5902 77.7001 22.4272C77.4987 22.2485 77.2748 22.0971 77.034 21.9766C76.7675 21.8219 76.4865 21.6935 76.1951 21.5932C75.8906 21.4831 75.572 21.4163 75.2489 21.3949C74.895 21.3592 74.5395 21.3414 74.1838 21.3417C73.766 21.3417 73.34 21.3728 72.9042 21.4342C72.479 21.4847 72.0624 21.5916 71.6654 21.7521C71.2858 21.9097 70.9348 22.1289 70.6266 22.401C70.3243 22.6746 70.0941 23.0277 69.9335 23.4594C69.8893 23.6536 69.8491 23.8437 69.8139 24.0288C69.7874 24.1996 69.7737 24.3721 69.773 24.545V24.9685C69.773 25.1455 69.7869 25.3306 69.8139 25.5248C69.8491 25.719 69.8893 25.9131 69.9335 26.1065C69.9958 26.3014 70.0802 26.4825 70.1867 26.6496C70.3022 26.8176 70.4488 26.9806 70.6266 27.1395C71.0879 27.5811 71.5942 27.881 72.1455 28.0399C72.6961 28.1898 73.3171 28.2644 74.0102 28.2644C74.4632 28.2644 74.8671 28.2513 75.2227 28.2251C75.5782 28.1988 75.9026 28.1235 76.1951 27.9998C76.4794 27.8941 76.7588 27.7622 77.034 27.6032C77.2661 27.4764 77.4811 27.3206 77.6739 27.1395C77.8384 26.9973 77.9818 26.8323 78.0999 26.6496C78.2064 26.4825 78.2957 26.3014 78.367 26.1073C78.3748 26.0672 78.3835 26.0273 78.3932 25.9877C78.4022 25.9524 78.4112 25.9131 78.4202 25.8689H80.4585C80.325 26.5308 80.1079 27.0953 79.8056 27.5631C79.5033 28.0219 79.0502 28.4151 78.4464 28.7412C78.1547 28.9123 77.8468 29.0542 77.5272 29.1647C77.1987 29.2713 76.8612 29.3548 76.5146 29.4163C76.1689 29.4777 75.8183 29.5178 75.4627 29.5351C75.1258 29.5616 74.788 29.575 74.4501 29.5752H73.7046C73.3752 29.5752 73.0377 29.5621 72.6912 29.5351C72.3433 29.5173 71.9966 29.482 71.6523 29.4294C71.3095 29.3685 70.9712 29.2844 70.6397 29.1779C70.3182 29.0665 70.0099 28.9201 69.7205 28.7412C68.957 28.3439 68.4146 27.8195 68.0951 27.1658C67.7838 26.5046 67.6281 25.7673 67.6281 24.9554L67.629 24.5982ZM81.8865 29.4425C81.8288 29.444 81.7723 29.4255 81.7267 29.39C81.7058 29.3749 81.6887 29.3549 81.677 29.3318C81.6654 29.3087 81.6594 29.2832 81.6596 29.2573V20.3626C81.6595 20.3368 81.6656 20.3113 81.6772 20.2882C81.6889 20.2652 81.7059 20.2452 81.7267 20.2299C81.7723 20.1945 81.8288 20.1759 81.8865 20.1775H92.518C92.5803 20.1775 92.6335 20.1988 92.6778 20.243C92.731 20.2783 92.7572 20.3184 92.7572 20.3626V29.2573C92.7574 29.2831 92.7516 29.3086 92.74 29.3317C92.7285 29.3547 92.7116 29.3747 92.6909 29.39C92.641 29.4268 92.5799 29.4453 92.518 29.4425H90.8254C90.7635 29.4453 90.7025 29.4268 90.6525 29.39C90.6318 29.3747 90.6149 29.3547 90.6034 29.3317C90.5919 29.3086 90.586 29.2831 90.5862 29.2573V21.739C90.5862 21.6161 90.5108 21.5538 90.3593 21.5538H84.0313C83.8896 21.5538 83.8183 21.6153 83.8183 21.739V29.2573C83.8183 29.381 83.747 29.4425 83.6053 29.4425H81.8865ZM96.7765 24.055C96.7765 24.1173 96.7986 24.1697 96.8429 24.214C96.8871 24.25 96.9543 24.2672 97.0428 24.2672H100.706C100.813 24.2672 100.938 24.2631 101.079 24.2541C101.231 24.2359 101.382 24.2141 101.532 24.1886C101.683 24.1615 101.826 24.1263 101.959 24.0821C102.092 24.0288 102.198 23.9625 102.279 23.883C102.429 23.7683 102.541 23.6364 102.611 23.4865C102.674 23.3185 102.705 23.1506 102.705 22.9835V22.8376C102.705 22.7582 102.696 22.6836 102.678 22.6123C102.661 22.536 102.639 22.461 102.611 22.3878C102.522 22.2312 102.41 22.0884 102.279 21.9643C102.181 21.88 102.068 21.8167 101.945 21.7783C101.812 21.7253 101.673 21.6855 101.532 21.6595C101.388 21.6241 101.241 21.6022 101.093 21.594C100.964 21.5854 100.835 21.5807 100.706 21.5801H97.0559C96.9584 21.5801 96.8871 21.5981 96.8429 21.6333C96.8206 21.6559 96.8033 21.6829 96.7918 21.7125C96.7804 21.742 96.7752 21.7737 96.7765 21.8054V24.0559V24.055ZM96.7765 29.2573C96.7767 29.2831 96.7708 29.3086 96.7593 29.3317C96.7478 29.3547 96.7309 29.3747 96.7101 29.39C96.6741 29.4253 96.6208 29.4425 96.5496 29.4425H94.8447C94.813 29.4445 94.7812 29.44 94.7513 29.4294L94.671 29.39C94.6536 29.3727 94.6398 29.352 94.6307 29.3292C94.6215 29.3064 94.6171 29.2819 94.6178 29.2573V20.3626C94.6178 20.3094 94.6317 20.2652 94.6579 20.2299C94.7034 20.1944 94.7599 20.1759 94.8177 20.1775H100.52C100.857 20.1775 101.235 20.1947 101.653 20.2299C102.063 20.2641 102.469 20.3396 102.864 20.4552C103.264 20.5699 103.629 20.7379 103.957 20.9582C104.286 21.1696 104.526 21.4564 104.677 21.8185C104.73 21.9774 104.774 22.1445 104.81 22.3215C104.854 22.4976 104.876 22.6787 104.876 22.8638V22.9966C104.876 23.3587 104.796 23.7069 104.636 24.0419C104.486 24.3778 104.264 24.6515 103.97 24.8628C103.757 25.039 103.504 25.1807 103.211 25.2864C102.927 25.3929 102.629 25.4765 102.319 25.5379C102.007 25.5911 101.697 25.6264 101.386 25.6444C101.075 25.6608 100.787 25.6706 100.52 25.6706H96.9363C96.883 25.6706 96.8429 25.6837 96.8166 25.7099C96.7996 25.7218 96.7858 25.7378 96.7765 25.7564C96.7672 25.775 96.7627 25.7957 96.7634 25.8164L96.7765 29.2573ZM105.885 20.3626C105.885 20.3004 105.898 20.2561 105.925 20.2299C105.981 20.1964 106.046 20.1783 106.111 20.1775H115.717C115.788 20.1775 115.841 20.1947 115.877 20.2299C115.897 20.2452 115.914 20.2652 115.926 20.2883C115.937 20.3114 115.943 20.3368 115.943 20.3626V21.3687C115.943 21.4391 115.921 21.4875 115.877 21.5137C115.841 21.5407 115.788 21.5538 115.717 21.5538H108.203C108.145 21.555 108.09 21.5732 108.043 21.6063C107.999 21.6333 107.977 21.6776 107.977 21.739V23.7511C107.977 23.8125 107.999 23.8617 108.043 23.8969C108.096 23.9231 108.149 23.9362 108.203 23.9362H115.53C115.673 23.9362 115.743 23.9977 115.743 24.1214V25.1274C115.743 25.2512 115.673 25.3126 115.53 25.3126H108.203C108.145 25.314 108.09 25.3325 108.043 25.3659C107.999 25.3921 107.977 25.4363 107.977 25.4986V27.8548C107.977 27.9776 108.052 28.0399 108.203 28.0399H115.864C115.935 28.0399 115.988 28.0571 116.023 28.0923C116.044 28.1076 116.061 28.1276 116.072 28.1507C116.084 28.1738 116.09 28.1993 116.09 28.2251V29.2573C116.09 29.2831 116.084 29.3086 116.072 29.3317C116.061 29.3547 116.044 29.3747 116.023 29.39C115.988 29.4253 115.935 29.4425 115.864 29.4425H106.111C106.046 29.4416 105.981 29.4236 105.925 29.39C105.898 29.363 105.885 29.3196 105.885 29.2573V20.3626ZM116.951 24.5982C116.951 23.9895 117.03 23.4553 117.19 22.9966C117.336 22.5617 117.562 22.1577 117.856 21.8054C118.14 21.4613 118.474 21.1786 118.855 20.9582C119.237 20.7289 119.655 20.5478 120.108 20.4151C120.57 20.281 121.042 20.1881 121.52 20.1373C122.019 20.0755 122.522 20.0446 123.026 20.0448H123.771C124.313 20.0448 124.868 20.08 125.437 20.1513C125.997 20.2174 126.547 20.3505 127.075 20.5478C127.588 20.7352 128.066 21.008 128.488 21.3548C128.914 21.6989 129.247 22.1445 129.487 22.6918C129.557 22.8597 129.616 23.0277 129.66 23.1948C129.704 23.3628 129.744 23.5307 129.779 23.6978V23.7249H127.755C127.689 23.4826 127.6 23.2474 127.488 23.0228C127.377 22.7933 127.218 22.5903 127.022 22.4272C126.82 22.2485 126.597 22.097 126.356 21.9766C126.089 21.8219 125.808 21.6935 125.517 21.5932C125.212 21.4831 124.894 21.4164 124.571 21.3949C124.216 21.3592 123.861 21.3414 123.505 21.3417C123.088 21.3417 122.661 21.3728 122.226 21.4342C121.801 21.4847 121.384 21.5916 120.987 21.7521C120.607 21.9098 120.256 22.129 119.948 22.401C119.646 22.6746 119.415 23.0277 119.255 23.4594C119.212 23.6486 119.172 23.8384 119.135 24.0288C119.109 24.1997 119.096 24.3722 119.096 24.545V24.9685C119.096 25.1455 119.109 25.3306 119.135 25.5248C119.171 25.719 119.211 25.9131 119.255 26.1065C119.318 26.3014 119.402 26.4825 119.508 26.6496C119.624 26.8176 119.771 26.9806 119.948 27.1395C120.41 27.5811 120.916 27.881 121.466 28.0399C122.017 28.1898 122.639 28.2644 123.332 28.2644C123.785 28.2644 124.189 28.2513 124.544 28.2251C124.879 28.2033 125.207 28.1272 125.517 27.9998C125.801 27.8941 126.081 27.7622 126.356 27.6032C126.588 27.476 126.803 27.3203 126.996 27.1395C127.182 26.9716 127.324 26.8086 127.422 26.6496C127.53 26.4791 127.619 26.2972 127.688 26.1073C127.696 26.0672 127.705 26.0273 127.715 25.9877C127.725 25.9484 127.734 25.9088 127.741 25.8689H129.779C129.647 26.5308 129.429 27.0953 129.127 27.5631C128.825 28.0219 128.372 28.4151 127.768 28.7412C127.476 28.9123 127.169 29.0542 126.849 29.1647C126.52 29.2713 126.183 29.3548 125.836 29.4163C125.49 29.4777 125.139 29.5178 124.784 29.5351C124.438 29.5621 124.1 29.5752 123.771 29.5752H123.026C122.697 29.5752 122.359 29.5621 122.013 29.5351C121.665 29.5174 121.318 29.4821 120.974 29.4294C120.631 29.3685 120.293 29.2845 119.961 29.1779C119.64 29.0665 119.332 28.9201 119.042 28.7412C118.278 28.3439 117.736 27.8195 117.417 27.1658C117.106 26.5046 116.951 25.7673 116.951 24.9554V24.5982ZM130.989 24.5982C130.989 23.9895 131.068 23.4553 131.228 22.9966C131.374 22.5617 131.6 22.1577 131.894 21.8054C132.178 21.4613 132.512 21.1786 132.893 20.9582C133.275 20.7289 133.693 20.5478 134.146 20.4151C134.608 20.281 135.08 20.1881 135.558 20.1373C136.057 20.0755 136.56 20.0446 137.063 20.0448H137.809C138.351 20.0448 138.906 20.08 139.475 20.1513C140.035 20.2174 140.585 20.3505 141.113 20.5478C141.637 20.742 142.108 21.0107 142.525 21.3548C142.951 21.6989 143.285 22.1445 143.525 22.6918C143.595 22.8597 143.654 23.0277 143.698 23.1948C143.742 23.3628 143.782 23.5307 143.817 23.6978V23.7249H141.793C141.727 23.4826 141.638 23.2474 141.526 23.0228C141.415 22.7933 141.256 22.5903 141.06 22.4272C140.858 22.2485 140.635 22.097 140.394 21.9766C140.127 21.8219 139.846 21.6935 139.555 21.5932C139.25 21.4831 138.932 21.4164 138.609 21.3949C138.254 21.3592 137.899 21.3414 137.543 21.3417C137.126 21.3417 136.699 21.3728 136.264 21.4342C135.839 21.4847 135.422 21.5916 135.025 21.7521C134.645 21.9098 134.294 22.129 133.986 22.401C133.684 22.6746 133.453 23.0277 133.293 23.4594C133.25 23.6486 133.21 23.8384 133.173 24.0288C133.147 24.1997 133.134 24.3722 133.134 24.545V24.9685C133.134 25.1455 133.147 25.3306 133.173 25.5248C133.209 25.719 133.249 25.9131 133.293 26.1065C133.356 26.3014 133.44 26.4825 133.546 26.6496C133.662 26.8176 133.809 26.9806 133.986 27.1395C134.448 27.5811 134.954 27.881 135.504 28.0399C136.055 28.1898 136.677 28.2644 137.37 28.2644C137.823 28.2644 138.227 28.2513 138.582 28.2251C138.917 28.2033 139.245 28.1272 139.555 27.9998C139.839 27.8941 140.118 27.7622 140.394 27.6032C140.626 27.476 140.841 27.3203 141.034 27.1395C141.22 26.9716 141.362 26.8086 141.46 26.6496C141.568 26.4791 141.657 26.2972 141.726 26.1073C141.734 26.0672 141.743 26.0273 141.753 25.9877C141.763 25.9484 141.772 25.9088 141.779 25.8689H143.817C143.685 26.5308 143.467 27.0953 143.165 27.5631C142.863 28.0219 142.41 28.4151 141.806 28.7412C141.514 28.9123 141.207 29.0542 140.887 29.1647C140.558 29.2713 140.221 29.3548 139.874 29.4163C139.528 29.4777 139.177 29.5178 138.822 29.5351C138.476 29.5621 138.138 29.5752 137.809 29.5752H137.063C136.735 29.5752 136.397 29.5621 136.051 29.5351C135.703 29.5174 135.356 29.4821 135.012 29.4294C134.669 29.3685 134.331 29.2845 133.999 29.1779C133.678 29.0667 133.37 28.9202 133.08 28.7412C132.316 28.3439 131.774 27.8195 131.455 27.1658C131.144 26.5046 130.989 25.7673 130.989 24.9554V24.5982Z" fill="#ED001D"/>
<path d="M44.7618 37.6965C44.7331 37.6972 44.7047 37.6898 44.6799 37.6752C44.657 37.6564 44.6455 37.6277 44.6455 37.5892V33.5502C44.6455 33.479 44.6127 33.4437 44.5488 33.4437H42.4016C42.3695 33.4425 42.3383 33.4326 42.3114 33.4151C42.3024 33.4054 42.2953 33.3941 42.2906 33.3817C42.286 33.3694 42.2839 33.3562 42.2844 33.343V32.785C42.2844 32.7564 42.2934 32.7326 42.3114 32.713C42.3383 32.6954 42.3695 32.6855 42.4016 32.6843H48.0249C48.0987 32.6843 48.1356 32.7179 48.1356 32.785V33.343C48.1356 33.4101 48.0987 33.4437 48.0249 33.4437H45.8703C45.8429 33.4454 45.8166 33.4554 45.7949 33.4724C45.78 33.4958 45.7729 33.5233 45.7745 33.5511V37.5892C45.7745 37.6219 45.7646 37.649 45.7466 37.6678C45.7216 37.6831 45.6937 37.6929 45.6647 37.6965H44.7618Z" fill="#6C6C6C"/>
<path d="M49.3825 37.6465L47.5997 34.2024C47.5908 34.1846 47.5885 34.1643 47.5932 34.145C47.6014 34.1262 47.6202 34.1163 47.6481 34.1163H48.5083C48.5411 34.1163 48.5657 34.1352 48.5845 34.1737L49.9813 36.8731C49.9953 36.9018 50.0092 36.9166 50.0223 36.9166C50.0411 36.9166 50.0575 36.9018 50.0714 36.8731L51.4617 34.1737C51.4847 34.1352 51.5076 34.1163 51.5305 34.1163H52.3842C52.4112 34.1163 52.4276 34.1262 52.4317 34.145C52.4363 34.1539 52.4386 34.1637 52.4386 34.1737C52.4386 34.1837 52.4363 34.1935 52.4317 34.2024L50.6834 37.6465C50.5959 37.8072 50.5113 37.9695 50.4295 38.1332C50.3647 38.2724 50.2885 38.3888 50.2017 38.4838C50.1145 38.5827 50.003 38.657 49.8781 38.6993C49.7454 38.7468 49.5619 38.7705 49.3276 38.7705H48.3436C48.3068 38.7705 48.2838 38.7607 48.274 38.7419C48.2609 38.7279 48.2535 38.7034 48.2535 38.6706V38.1905C48.2532 38.1781 48.2557 38.1658 48.2609 38.1545C48.265 38.1454 48.2691 38.1356 48.2748 38.1258C48.2868 38.1171 48.2983 38.1078 48.3092 38.0979H48.3436L49.1416 38.1045C49.1795 38.1046 49.217 38.0973 49.2522 38.0832C49.2902 38.0753 49.3257 38.0581 49.3554 38.0332C49.4423 37.9759 49.4783 37.9111 49.4652 37.8399C49.4506 37.7707 49.422 37.7051 49.3825 37.6465ZM53.9588 35.8999C53.9588 36.0522 53.9834 36.1948 54.0342 36.3292C54.0899 36.4627 54.1702 36.5823 54.2759 36.6872C54.3398 36.7445 54.4037 36.7937 54.4684 36.8371C54.5372 36.8805 54.611 36.9166 54.6888 36.9444C54.7297 36.9641 54.7781 36.9829 54.833 37.0018L54.9985 37.0452C55.0583 37.0542 55.1156 37.064 55.1705 37.0739C55.3637 37.0879 55.558 37.0783 55.7489 37.0452C55.8816 37.0206 56.0029 36.9805 56.1135 36.9231C56.2232 36.8658 56.3199 36.7896 56.4027 36.6937C56.4846 36.5938 56.5542 36.4701 56.6091 36.3218C56.6531 36.1902 56.6763 36.0525 56.6779 35.9138V35.7917C56.6779 35.6582 56.655 35.5173 56.6091 35.3698C56.57 35.2335 56.4993 35.1083 56.4027 35.0044C56.3412 34.9312 56.2665 34.8703 56.1823 34.825C56.0955 34.7777 56.003 34.7419 55.907 34.7185C55.8105 34.6898 55.7115 34.6706 55.6113 34.6611C55.5173 34.6518 55.423 34.6469 55.3286 34.6464C55.159 34.6464 54.9911 34.671 54.8264 34.7177C54.6701 34.7633 54.5231 34.8362 54.3922 34.9331C54.2644 35.0233 54.1587 35.1404 54.076 35.2838C53.9947 35.4405 53.9544 35.6152 53.9588 35.7917V35.8999ZM52.9266 34.1663C52.9266 34.1426 52.9307 34.1188 52.9405 34.095C52.9536 34.0705 52.979 34.059 53.0159 34.059H53.863C53.899 34.059 53.9244 34.0713 53.9383 34.095C53.9523 34.1196 53.9588 34.1426 53.9588 34.1663V34.5751C54.0108 34.5137 54.0739 34.4625 54.1448 34.4244C54.2326 34.3715 54.3247 34.326 54.4201 34.2884C54.5167 34.245 54.611 34.2097 54.7019 34.1811C54.7986 34.1483 54.8813 34.1237 54.9501 34.1098C55.1718 34.0636 55.3979 34.0416 55.6244 34.0442H55.7276C55.8611 34.0442 55.9963 34.0549 56.134 34.0737C56.2716 34.0877 56.4068 34.1163 56.5403 34.1598C56.673 34.1974 56.7992 34.2499 56.9188 34.3171C57.0425 34.3842 57.1531 34.4694 57.249 34.5751C57.4185 34.7513 57.5357 34.9307 57.6004 35.1117C57.6643 35.2928 57.6963 35.5083 57.6963 35.7565V35.8851C57.6963 36.2095 57.6438 36.4864 57.5382 36.7158C57.4374 36.9452 57.2948 37.1337 57.1121 37.2811C56.9247 37.4287 56.7088 37.5361 56.478 37.5965C56.2243 37.6647 55.9625 37.6983 55.6997 37.6965H55.6178C55.5211 37.6965 55.413 37.6916 55.2942 37.6826C55.1742 37.6681 55.0547 37.649 54.9362 37.6252C54.8192 37.5973 54.7042 37.5614 54.5921 37.5179C54.4878 37.4782 54.3902 37.4227 54.3029 37.3532L54.1931 37.2811C54.1538 37.2506 54.1148 37.2197 54.076 37.1886C54.0301 37.164 53.9981 37.1599 53.9793 37.1738C53.9654 37.1886 53.9588 37.2148 53.9588 37.2525V38.8779C53.9588 38.9024 53.9523 38.9254 53.9383 38.95C53.9244 38.9737 53.899 38.9852 53.863 38.9852H53.0159C52.979 38.9852 52.9536 38.9737 52.9405 38.95C52.9314 38.927 52.9267 38.9026 52.9266 38.8779V34.1663ZM62.4144 35.813C62.4144 35.6942 62.3931 35.5672 62.3521 35.4337C62.3138 35.2908 62.2319 35.1633 62.1178 35.0691C62.0427 34.9913 61.9538 34.928 61.8556 34.8823C61.7532 34.8294 61.6448 34.7887 61.5329 34.7611C61.4222 34.7323 61.3093 34.7131 61.1953 34.7037C61.0905 34.6901 60.9848 34.683 60.8791 34.6824C60.7365 34.6824 60.5874 34.6915 60.4318 34.7111C60.2833 34.7291 60.1375 34.7649 59.9976 34.8176C59.8587 34.8709 59.7305 34.9486 59.6191 35.047C59.5093 35.1478 59.4265 35.2764 59.3717 35.4337L59.3307 35.6344C59.3171 35.693 59.31 35.7529 59.3094 35.813V35.9711C59.3094 36.2382 59.3831 36.4627 59.5298 36.6437C59.6772 36.8207 59.8673 36.9469 60.1008 37.0239C60.1925 37.0616 60.3031 37.0902 60.4318 37.1091C60.5596 37.1238 60.7095 37.1312 60.8791 37.1312C61.1126 37.1312 61.333 37.1066 61.5394 37.0591C61.7556 37.0013 61.9528 36.8877 62.1113 36.7298C62.2169 36.6298 62.2923 36.5168 62.3382 36.3939C62.39 36.259 62.4158 36.1156 62.4144 35.9711V35.813ZM60.9758 34.0451C61.1036 34.0451 61.2396 34.05 61.3813 34.059C61.6659 34.0786 61.9474 34.1291 62.221 34.2097C62.3587 34.2482 62.4848 34.2982 62.5995 34.3597C62.7511 34.4555 62.8846 34.5579 62.9993 34.6677C63.114 34.7726 63.2099 34.9086 63.2877 35.0757C63.3231 35.1384 63.3487 35.206 63.3639 35.2764L63.4049 35.4771L63.4327 35.6557C63.4417 35.7131 63.4466 35.7704 63.4466 35.8278V35.9638C63.4466 36.0785 63.4327 36.1981 63.4057 36.3218C63.3819 36.457 63.3423 36.589 63.2877 36.715C63.173 36.9444 63.0288 37.1287 62.8543 37.2672C62.6847 37.4057 62.4963 37.513 62.2899 37.5892C62.0829 37.6619 61.8682 37.71 61.65 37.7325C61.4247 37.7563 61.1994 37.7686 60.9758 37.7686H60.748C60.4727 37.7686 60.195 37.7489 59.9156 37.7112C59.6352 37.6776 59.3651 37.5846 59.1234 37.4384C59.0341 37.3968 58.949 37.3466 58.8694 37.2885C58.8009 37.2359 58.7385 37.1757 58.6835 37.1091C58.5792 37.0062 58.495 36.8848 58.4352 36.7511C58.3505 36.5563 58.3017 36.3479 58.2911 36.1358C58.2865 36.0786 58.284 36.0212 58.2837 35.9638V35.8278C58.2837 35.6082 58.3115 35.4034 58.3664 35.2117C58.4262 35.0208 58.5319 34.8471 58.6835 34.689C58.7982 34.5555 58.9375 34.4481 59.1029 34.367C59.2725 34.281 59.4519 34.2146 59.6396 34.1663C59.828 34.1188 60.0189 34.0877 60.2114 34.0737C60.4039 34.0549 60.5833 34.0451 60.748 34.0451H60.9758ZM64.193 37.6752C64.1865 37.6686 64.1813 37.6608 64.1778 37.6522C64.1742 37.6437 64.1725 37.6345 64.1725 37.6252V34.1876C64.1725 34.168 64.1791 34.1516 64.193 34.1368C64.2117 34.1255 64.2327 34.1182 64.2544 34.1155H68.6325C68.6527 34.1163 68.672 34.1238 68.6874 34.1368C68.7063 34.1565 68.7153 34.1729 68.7153 34.1876V37.6244C68.7153 37.6383 68.7063 37.6555 68.6874 37.6736C68.6721 37.6869 68.6528 37.6947 68.6325 37.6957H67.7584C67.7392 37.6956 67.7204 37.6908 67.7035 37.6817C67.6946 37.6751 67.6874 37.6665 67.6825 37.6565C67.6777 37.6465 67.6753 37.6355 67.6756 37.6244V34.8602C67.6756 34.8365 67.6666 34.8193 67.6486 34.8102C67.6414 34.803 67.6326 34.7973 67.623 34.7936C67.6134 34.79 67.6032 34.7884 67.5929 34.7889H65.2875C65.2673 34.7896 65.248 34.7971 65.2326 34.8102C65.2138 34.8201 65.2048 34.8365 65.2048 34.8602V37.6244C65.2048 37.6482 65.1982 37.6654 65.1843 37.6736C65.1704 37.6883 65.1499 37.6957 65.122 37.6957H64.2544C64.2327 37.693 64.2117 37.6865 64.193 37.6752ZM71.8817 34.7037C71.7482 34.7037 71.6089 34.7111 71.4614 34.725C71.3235 34.7386 71.1875 34.7674 71.0559 34.8111C70.931 34.8521 70.8145 34.915 70.7118 34.997C70.6085 35.0763 70.5295 35.183 70.4841 35.3051C70.4618 35.3521 70.4569 35.4055 70.4701 35.4558C70.4841 35.4886 70.5193 35.505 70.5734 35.505H73.1417C73.2564 35.505 73.3064 35.4771 73.2925 35.4198C73.2946 35.2796 73.243 35.1438 73.1483 35.0405C73.0525 34.9422 72.9345 34.8683 72.8042 34.825C72.658 34.7707 72.505 34.7371 72.3495 34.725C72.1986 34.7112 72.0472 34.7041 71.8956 34.7037H71.8817ZM74.2289 36.6011C74.3108 36.6011 74.3526 36.6061 74.3526 36.6151V36.6298C74.3526 36.8592 74.2813 37.0476 74.1396 37.1951C73.997 37.3426 73.816 37.4605 73.5956 37.5457C73.3682 37.6346 73.1298 37.6925 72.8869 37.7178C72.6472 37.7506 72.4055 37.7676 72.1635 37.7686H71.799C71.5098 37.7686 71.2181 37.7416 70.9248 37.6891C70.647 37.6424 70.3793 37.5482 70.1334 37.4106C69.8995 37.2723 69.7013 37.0809 69.555 36.8518C69.4076 36.6175 69.3346 36.3218 69.3346 35.9638V35.8278C69.3346 35.7131 69.3412 35.6008 69.3551 35.4919C69.374 35.3813 69.4043 35.2739 69.4452 35.1691C69.5141 34.9544 69.6288 34.7758 69.7893 34.6317C69.954 34.4842 70.1424 34.367 70.3538 34.281C70.5643 34.195 70.7921 34.1352 71.0346 34.1024C71.2828 34.0639 71.5237 34.0451 71.758 34.0451H72.157C72.4003 34.0451 72.6436 34.0639 72.8861 34.1024C73.1294 34.1401 73.3531 34.2073 73.5546 34.3023C73.7611 34.3932 73.9331 34.5202 74.0708 34.6824C74.2125 34.8447 74.3043 35.047 74.346 35.2903C74.3641 35.405 74.3755 35.5148 74.3804 35.6205C74.3895 35.7254 74.3944 35.8302 74.3944 35.9351V36.0858C74.3944 36.1096 74.3829 36.1309 74.36 36.1497C74.3501 36.1645 74.3297 36.171 74.2977 36.171H70.5603C70.5414 36.1707 70.5225 36.1734 70.5045 36.1792H70.471C70.448 36.1874 70.4365 36.2005 70.4365 36.2145C70.4865 36.4053 70.5742 36.5561 70.6979 36.665C70.8216 36.7756 70.9617 36.8584 71.1174 36.9157C71.2779 36.9731 71.4483 37.0116 71.6269 37.0304C71.8063 37.0452 71.9735 37.0517 72.1291 37.0517C72.2668 37.0517 72.3995 37.0452 72.5289 37.0304C72.6452 37.0186 72.7603 36.9972 72.873 36.9665C72.9787 36.9329 73.068 36.8928 73.1417 36.8445C73.2085 36.804 73.2611 36.7439 73.2925 36.6724C73.2993 36.6508 73.3132 36.632 73.3319 36.6191C73.3506 36.6062 73.373 36.5999 73.3957 36.6011H74.2289ZM76.1541 35.8999C76.1541 36.0522 76.1804 36.1948 76.2303 36.3292C76.2852 36.4627 76.3655 36.5823 76.4712 36.6872C76.5894 36.8009 76.73 36.8888 76.8841 36.9452C76.9251 36.9641 76.9742 36.9829 77.0291 37.0026L77.1938 37.0452C77.2536 37.0542 77.3109 37.064 77.3658 37.0739C77.5591 37.0879 77.7533 37.0783 77.9442 37.0452C78.0778 37.0206 78.199 36.9805 78.3096 36.9231C78.4194 36.8658 78.5161 36.7896 78.598 36.6937C78.6807 36.5938 78.7495 36.4701 78.8044 36.3218C78.8503 36.1784 78.8741 36.0432 78.8741 35.9138V35.7917C78.8741 35.6582 78.8503 35.5173 78.8044 35.3698C78.7653 35.2335 78.6946 35.1083 78.598 35.0044C78.5368 34.9313 78.4623 34.8704 78.3784 34.825C78.2914 34.7777 78.1986 34.7419 78.1023 34.7185C78.0061 34.6899 77.9073 34.6707 77.8074 34.6611C77.7135 34.6518 77.6192 34.6469 77.5248 34.6464C77.3552 34.6464 77.1872 34.671 77.0217 34.7177C76.8657 34.7633 76.719 34.8363 76.5883 34.9331C76.4597 35.0233 76.354 35.1404 76.2721 35.2838C76.1909 35.4405 76.1506 35.6152 76.155 35.7917V35.899L76.1541 35.8999ZM75.1219 34.1663C75.1219 34.1426 75.1268 34.1188 75.1358 34.095C75.1497 34.0705 75.1751 34.059 75.212 34.059H76.0583C76.0952 34.059 76.1205 34.0713 76.1345 34.095C76.1476 34.1196 76.155 34.1426 76.155 34.1663V34.5751C76.2069 34.5137 76.27 34.4625 76.3409 34.4244C76.4288 34.3715 76.5209 34.326 76.6162 34.2884C76.7121 34.245 76.8063 34.2097 76.898 34.1811C76.9947 34.1483 77.0774 34.1237 77.1463 34.1098C77.368 34.0636 77.5941 34.0416 77.8205 34.0442H77.9237C78.0565 34.0442 78.1925 34.0549 78.3301 34.0737C78.4677 34.0877 78.6029 34.1163 78.7356 34.1598C78.8692 34.1974 78.9953 34.2499 79.1149 34.3171C79.2378 34.3842 79.3484 34.4694 79.4451 34.5751C79.6147 34.7513 79.7318 34.9307 79.7957 35.1117C79.8605 35.2928 79.8924 35.5083 79.8924 35.7565V35.8851C79.8924 36.2095 79.84 36.4864 79.7343 36.7158C79.6335 36.9452 79.491 37.1337 79.3075 37.2811C79.1203 37.4286 78.9047 37.536 78.6742 37.5965C78.4204 37.6647 78.1586 37.6983 77.8959 37.6965H77.814C77.7173 37.6965 77.6091 37.6916 77.4904 37.6826C77.3703 37.6681 77.2509 37.649 77.1323 37.6252C77.0153 37.5973 76.9004 37.5614 76.7882 37.5179C76.6839 37.4782 76.5864 37.4227 76.4991 37.3532L76.3885 37.2811C76.3494 37.2506 76.3107 37.2197 76.2721 37.1886C76.2262 37.164 76.1935 37.1599 76.1754 37.1738C76.1615 37.1886 76.155 37.2148 76.155 37.2525V38.8779C76.155 38.9024 76.1476 38.9254 76.1345 38.95C76.1205 38.9737 76.0952 38.9852 76.0583 38.9852H75.212C75.1751 38.9852 75.1497 38.9737 75.1358 38.95C75.1267 38.927 75.122 38.9026 75.1219 38.8779V34.1663ZM84.128 36.1071C84.1231 36.0309 84.0755 35.9974 83.9838 36.0064L82.2347 36.1784C82.1634 36.1859 82.0924 36.1955 82.0217 36.2071C81.9305 36.2175 81.8405 36.2367 81.7529 36.2644C81.67 36.2912 81.5913 36.3298 81.5195 36.3791C81.4892 36.3979 81.4643 36.4242 81.4473 36.4555C81.4304 36.4869 81.4219 36.5221 81.4228 36.5577V36.6298C81.4318 36.6921 81.4433 36.7445 81.4572 36.7871C81.4682 36.8258 81.4897 36.8607 81.5195 36.8879C81.5716 36.9397 81.635 36.9789 81.7046 37.0026C81.7446 37.0226 81.7863 37.039 81.8291 37.0517C81.875 37.0616 81.9225 37.0739 81.9733 37.0878C82.102 37.1124 82.2371 37.1238 82.3797 37.1238C82.5979 37.1242 82.8161 37.1146 83.0334 37.0952C83.1481 37.0804 83.2604 37.0624 83.371 37.0378C83.4808 37.0132 83.5815 36.9854 83.6733 36.9518C83.745 36.9333 83.8115 36.8986 83.8676 36.8503C83.9237 36.802 83.9679 36.7414 83.9969 36.6732C84.0338 36.6011 84.0641 36.5274 84.087 36.4504C84.1099 36.3693 84.1231 36.2808 84.128 36.1858V36.1071ZM84.3967 37.3172C84.2632 37.4745 84.1075 37.5793 83.9281 37.6318C83.7481 37.6855 83.564 37.7238 83.3775 37.7465C83.0532 37.7852 82.7268 37.8043 82.4002 37.8038H82.3035C82.111 37.8038 81.907 37.7923 81.6915 37.7686C81.4879 37.7513 81.2881 37.703 81.0992 37.6252C80.9206 37.549 80.7715 37.4368 80.6519 37.2885C80.5372 37.1353 80.4798 36.9305 80.4798 36.6724V36.6511C80.4798 36.3119 80.606 36.0637 80.8583 35.9064C80.9873 35.825 81.1261 35.76 81.2712 35.7131C81.4187 35.6656 81.5784 35.6344 81.7529 35.6205L83.9076 35.3837C84.0362 35.3788 84.119 35.3452 84.1558 35.2838C84.1782 35.2611 84.1958 35.2342 84.2076 35.2047C84.2194 35.1752 84.2252 35.1435 84.2246 35.1117C84.2222 35.0682 84.215 35.0251 84.2033 34.9831C84.183 34.9567 84.16 34.9325 84.1345 34.911C84.1085 34.885 84.0783 34.8634 84.0452 34.8471C83.9703 34.8154 83.8915 34.7936 83.8109 34.7824C83.7159 34.7628 83.6195 34.7507 83.5225 34.7463C83.4264 34.737 83.3299 34.7323 83.2333 34.7324H82.9163C82.7098 34.7324 82.5222 34.7373 82.3518 34.7463C82.1673 34.7596 81.9848 34.7934 81.8078 34.8471C81.68 34.8897 81.5948 34.9331 81.5539 34.9757C81.5129 35.0183 81.4867 35.0994 81.4777 35.2191C81.4687 35.2715 81.4293 35.2977 81.3605 35.2977H80.6314C80.5577 35.2977 80.5208 35.2764 80.5208 35.2338V35.2191C80.5208 35.0568 80.5462 34.9135 80.597 34.7898C80.6585 34.6579 80.7534 34.5444 80.8722 34.4604C80.982 34.3597 81.1107 34.2835 81.2573 34.231C81.4048 34.1737 81.5555 34.1311 81.712 34.1024C81.8676 34.0737 82.0233 34.0565 82.1798 34.0524C82.3404 34.0475 82.4895 34.0442 82.6271 34.0442H82.8335C83.1186 34.0442 83.3611 34.0524 83.5635 34.0664C83.77 34.0803 83.9371 34.1049 84.0657 34.1376C84.1624 34.1663 84.2591 34.1999 84.3549 34.2384C84.4557 34.2761 84.5474 34.322 84.6302 34.3744C84.7129 34.4268 84.7867 34.4891 84.8506 34.5604C84.915 34.6267 84.9622 34.7076 84.9882 34.7963C85.03 34.9397 85.048 35.0781 85.0431 35.2117L84.9743 36.2145C84.9743 36.2767 84.9792 36.348 84.9882 36.4291C84.9972 36.511 85.0111 36.6061 85.03 36.7158C85.0529 36.9256 85.1922 37.0304 85.4494 37.0304H85.5666C85.6035 37.0304 85.6305 37.0517 85.6493 37.0952C85.665 37.1533 85.6719 37.2135 85.6698 37.2738V37.5965C85.6698 37.6629 85.6354 37.6965 85.5666 37.6965H85.2495C85.1486 37.6971 85.0477 37.6924 84.9472 37.6826C84.866 37.674 84.7855 37.6595 84.7064 37.6391C84.6451 37.619 84.5872 37.5901 84.5343 37.5531C84.4901 37.5222 84.4582 37.4766 84.4442 37.4245L84.3967 37.3172ZM87.6778 37.6965C87.641 37.6965 87.6205 37.6867 87.6155 37.6678C87.6115 37.6629 87.609 37.6465 87.609 37.6178V34.825C87.6098 34.804 87.6025 34.7834 87.5885 34.7676C87.5692 34.7581 87.5478 34.7533 87.5263 34.7537H86.0188C85.9959 34.7537 85.9795 34.7463 85.9705 34.7324C85.9639 34.7259 85.9587 34.7181 85.9551 34.7095C85.9516 34.7009 85.9499 34.6917 85.95 34.6824V34.1598C85.95 34.1352 85.9566 34.1163 85.9705 34.1024C85.9795 34.0877 85.9959 34.0803 86.0188 34.0803H90.2863C90.2965 34.08 90.3066 34.0818 90.3161 34.0856C90.3255 34.0894 90.3341 34.0951 90.3412 34.1024C90.3505 34.1201 90.3552 34.1398 90.3551 34.1598V34.6824C90.3544 34.6997 90.3496 34.7165 90.3412 34.7316C90.3342 34.739 90.3257 34.7448 90.3162 34.7486C90.3067 34.7524 90.2965 34.7542 90.2863 34.7537H88.7035C88.6847 34.7537 88.6708 34.7586 88.6617 34.7685C88.6478 34.7775 88.6413 34.7971 88.6413 34.8258V37.6178C88.6414 37.6271 88.6396 37.6363 88.6361 37.6449C88.6325 37.6535 88.6274 37.6613 88.6208 37.6678C88.6069 37.6867 88.5839 37.6965 88.552 37.6965H87.6778ZM94.834 35.813C94.834 35.6942 94.8135 35.5672 94.7718 35.4337C94.7338 35.2906 94.6518 35.1631 94.5375 35.0691C94.4626 34.9913 94.374 34.928 94.2761 34.8823C94.1734 34.8293 94.0648 34.7886 93.9525 34.7611C93.8421 34.7323 93.7295 34.7131 93.6158 34.7037C93.5107 34.6901 93.4048 34.683 93.2987 34.6824C93.1492 34.6829 92.9998 34.6925 92.8514 34.7111C92.7032 34.7291 92.5577 34.7649 92.418 34.8176C92.2792 34.8709 92.151 34.9486 92.0395 35.047C91.9253 35.1528 91.8399 35.2858 91.7913 35.4337L91.7503 35.6344C91.7367 35.693 91.7296 35.7529 91.729 35.813V35.9711C91.729 36.2382 91.8028 36.4627 91.9494 36.6437C92.0969 36.8207 92.287 36.9469 92.5213 37.0239C92.6274 37.0657 92.7383 37.0943 92.8514 37.1091C92.9801 37.1238 93.1292 37.1312 93.2987 37.1312C93.533 37.1312 93.7534 37.1066 93.9599 37.0591C94.1663 37.0067 94.3564 36.8969 94.5309 36.7298C94.6366 36.6298 94.712 36.5168 94.7578 36.3939C94.8096 36.259 94.8355 36.1156 94.834 35.9711V35.813ZM93.3954 34.0451C93.524 34.0451 93.6592 34.05 93.8009 34.059C94.0855 34.0786 94.3671 34.1291 94.6407 34.2097C94.7791 34.2482 94.9053 34.2982 95.02 34.3597C95.1707 34.4555 95.3043 34.5579 95.419 34.6677C95.5337 34.7726 95.6303 34.9086 95.7082 35.0757C95.7432 35.1384 95.7686 35.2061 95.7835 35.2764L95.8253 35.4771L95.8524 35.6557C95.8614 35.7131 95.8663 35.7704 95.8663 35.8278V35.9638C95.8663 36.0785 95.8524 36.1981 95.8253 36.3218C95.8017 36.457 95.7624 36.5889 95.7082 36.715C95.5935 36.9444 95.4485 37.1287 95.274 37.2672C95.1044 37.4057 94.9168 37.513 94.7095 37.5892C94.5026 37.662 94.2879 37.7102 94.0697 37.7325C93.8457 37.7564 93.6206 37.7684 93.3954 37.7686H93.1677C92.8892 37.7684 92.6111 37.7492 92.3353 37.7112C92.0551 37.6776 91.7853 37.5846 91.5439 37.4384C91.4542 37.3969 91.3689 37.3467 91.2891 37.2885C91.2204 37.2361 91.158 37.1759 91.1031 37.1091C90.9989 37.0062 90.9147 36.8848 90.8549 36.7511C90.7708 36.5561 90.722 36.3478 90.7107 36.1358C90.7062 36.0786 90.7041 36.0212 90.7042 35.9638V35.8278C90.7042 35.6082 90.7312 35.4034 90.7861 35.2117C90.8459 35.0208 90.9516 34.8471 91.1031 34.689C91.2178 34.5555 91.3579 34.4481 91.5226 34.367C91.693 34.281 91.8716 34.2146 92.06 34.1663C92.2473 34.1188 92.4384 34.0879 92.631 34.0737C92.8236 34.0549 93.003 34.0451 93.1677 34.0451H93.3954ZM97.6244 35.8999C97.6244 36.0522 97.6498 36.1948 97.7006 36.3292C97.7555 36.4627 97.8358 36.5823 97.9415 36.6872C98.0054 36.7445 98.0693 36.7937 98.134 36.8371C98.2028 36.8805 98.2765 36.9166 98.3544 36.9444C98.3953 36.9641 98.4437 36.9829 98.4986 37.0018L98.6641 37.0452C98.7239 37.0542 98.7812 37.064 98.8361 37.0739C99.0294 37.0878 99.2236 37.0782 99.4145 37.0452C99.5472 37.0206 99.6693 36.9805 99.7791 36.9231C99.8888 36.8658 99.9855 36.7896 100.068 36.6937C100.151 36.5938 100.22 36.4701 100.275 36.3218C100.319 36.1902 100.342 36.0525 100.344 35.9138V35.7917C100.344 35.6582 100.321 35.5173 100.275 35.3698C100.229 35.2223 100.16 35.0994 100.068 35.0044C100.007 34.9313 99.932 34.8704 99.8479 34.825C99.7612 34.7776 99.6686 34.7418 99.5726 34.7185C99.4761 34.6898 99.3771 34.6706 99.2769 34.6611C99.1829 34.6518 99.0886 34.6469 98.9942 34.6464C98.8246 34.6464 98.6567 34.671 98.492 34.7177C98.3357 34.7633 98.1887 34.8363 98.0578 34.9331C97.93 35.0233 97.8243 35.1404 97.7416 35.2838C97.6604 35.4405 97.6201 35.6152 97.6244 35.7917V35.8999ZM96.5922 34.1663C96.5922 34.1426 96.5963 34.1188 96.6061 34.095C96.6192 34.0705 96.6446 34.059 96.6815 34.059H97.5286C97.5646 34.059 97.59 34.0713 97.6039 34.095C97.6179 34.1196 97.6244 34.1426 97.6244 34.1663V34.5751C97.6765 34.5137 97.7396 34.4626 97.8104 34.4244C97.8972 34.3719 97.989 34.3261 98.0857 34.2884C98.1777 34.247 98.272 34.2112 98.3683 34.1811C98.4642 34.1483 98.5469 34.1237 98.6157 34.1098C98.8082 34.0664 99.0335 34.0442 99.29 34.0442H99.3932C99.5267 34.0442 99.6619 34.0549 99.7995 34.0737C99.9372 34.0877 100.072 34.1163 100.206 34.1598C100.339 34.1974 100.465 34.2499 100.584 34.3171C100.708 34.3842 100.819 34.4694 100.915 34.5751C101.085 34.7513 101.201 34.9307 101.266 35.1117C101.33 35.2928 101.362 35.5083 101.362 35.7565V35.8851C101.362 36.2095 101.309 36.4864 101.204 36.7158C101.103 36.9452 100.96 37.1337 100.777 37.2811C100.59 37.4287 100.374 37.5361 100.144 37.5965C99.8901 37.6646 99.6286 37.6982 99.3662 37.6965H99.2834C99.1754 37.6959 99.0675 37.6912 98.9598 37.6826C98.8398 37.668 98.7204 37.6489 98.6018 37.6252C98.4848 37.5971 98.3699 37.5613 98.2577 37.5179C98.1534 37.4781 98.0559 37.4226 97.9685 37.3532L97.8587 37.2811C97.8193 37.2507 97.7803 37.2198 97.7416 37.1886C97.6957 37.164 97.6637 37.1599 97.6449 37.1738C97.6318 37.1886 97.6244 37.2148 97.6244 37.2525V38.8779C97.6244 38.9024 97.6179 38.9254 97.6039 38.95C97.59 38.9737 97.5646 38.9852 97.5286 38.9852H96.6815C96.6446 38.9852 96.6192 38.9737 96.6061 38.95C96.5967 38.9271 96.5919 38.9026 96.5922 38.8779V34.1663ZM102.22 38.4412C102.174 38.4412 102.16 38.4199 102.179 38.3765C102.2 38.3251 102.218 38.2726 102.234 38.2192C102.252 38.1569 102.268 38.093 102.282 38.0258C102.296 37.9636 102.307 37.9021 102.316 37.8399C102.325 37.7925 102.329 37.7446 102.33 37.6965H102.13C102.053 37.6965 102.013 37.6637 102.013 37.5965V36.9952C102.013 36.928 102.053 36.8944 102.13 36.8944H103.011C103.053 36.8944 103.082 36.9067 103.101 36.9305C103.119 36.9493 103.128 36.9714 103.128 36.9952V37.4384C103.128 37.4769 103.124 37.5507 103.114 37.6604C103.11 37.7733 103.098 37.8858 103.08 37.9972C103.064 38.1026 103.037 38.2059 102.998 38.3052C102.965 38.3953 102.922 38.4412 102.867 38.4412H102.22ZM109.789 37.6965C109.66 37.6867 109.566 37.6588 109.506 37.6105L107.592 36.171C107.582 36.1596 107.569 36.1515 107.554 36.1477C107.539 36.1439 107.524 36.1446 107.51 36.1497C107.483 36.1547 107.469 36.1743 107.469 36.2071V37.6244C107.469 37.6391 107.46 37.6564 107.441 37.6752C107.425 37.6884 107.406 37.6959 107.386 37.6965H106.54C106.516 37.6965 106.493 37.6918 106.471 37.6826C106.448 37.6727 106.436 37.6539 106.436 37.6252V34.1876C106.436 34.154 106.445 34.1344 106.463 34.1303C106.488 34.1203 106.513 34.1153 106.54 34.1155H107.386C107.409 34.1155 107.428 34.1229 107.441 34.1368C107.46 34.1516 107.469 34.168 107.469 34.1876V35.4476C107.469 35.4763 107.483 35.4951 107.51 35.505C107.542 35.514 107.569 35.5099 107.592 35.4902L109.513 34.1442C109.524 34.1335 109.539 34.1261 109.554 34.1229C109.572 34.1186 109.591 34.1161 109.609 34.1155H110.615C110.651 34.1155 110.672 34.1278 110.676 34.1516C110.686 34.1704 110.681 34.1876 110.663 34.2015L108.488 35.7336C108.432 35.7721 108.43 35.8073 108.48 35.8417L110.752 37.5671C110.802 37.5998 110.825 37.631 110.821 37.6596C110.821 37.6842 110.802 37.6957 110.766 37.6957L109.789 37.6965ZM115.191 35.813C115.191 35.6942 115.17 35.5672 115.129 35.4337C115.091 35.2908 115.009 35.1634 114.895 35.0691C114.82 34.9915 114.732 34.9282 114.634 34.8823C114.531 34.8295 114.422 34.7888 114.31 34.7611C114.2 34.7324 114.087 34.7132 113.973 34.7037C113.868 34.6901 113.762 34.683 113.656 34.6824C113.514 34.6824 113.365 34.6915 113.208 34.7111C113.06 34.7291 112.915 34.7649 112.775 34.8176C112.636 34.8709 112.508 34.9486 112.396 35.047C112.283 35.153 112.197 35.286 112.148 35.4337L112.107 35.6344C112.094 35.693 112.087 35.7529 112.087 35.813V35.9711C112.087 36.2382 112.16 36.4627 112.307 36.6437C112.454 36.8207 112.644 36.9469 112.878 37.0239C112.984 37.0657 113.095 37.0943 113.208 37.1091C113.337 37.1238 113.486 37.1312 113.656 37.1312C113.89 37.1312 114.11 37.1066 114.317 37.0591C114.523 37.0067 114.714 36.8969 114.888 36.7298C114.993 36.6298 115.07 36.5168 115.116 36.3939C115.167 36.2589 115.192 36.1155 115.191 35.9711V35.813ZM113.752 34.0451C113.881 34.0451 114.016 34.05 114.159 34.059C114.443 34.0787 114.725 34.1292 114.998 34.2097C115.136 34.2482 115.262 34.2982 115.377 34.3597C115.528 34.4555 115.661 34.5579 115.776 34.6677C115.891 34.7726 115.987 34.9086 116.065 35.0757C116.1 35.1384 116.126 35.2061 116.141 35.2764L116.182 35.4771C116.191 35.5386 116.2 35.5984 116.21 35.6557C116.219 35.7131 116.223 35.7704 116.223 35.8278V35.9638C116.223 36.0785 116.21 36.1981 116.182 36.3218C116.159 36.457 116.119 36.5889 116.065 36.715C115.95 36.9444 115.806 37.1287 115.632 37.2672C115.462 37.4057 115.274 37.513 115.067 37.5892C114.86 37.662 114.645 37.7101 114.427 37.7325C114.203 37.7564 113.978 37.7684 113.752 37.7686H113.525C113.25 37.7686 112.972 37.7489 112.692 37.7112C112.412 37.6776 112.142 37.5846 111.901 37.4384C111.811 37.3969 111.726 37.3467 111.646 37.2885C111.577 37.2359 111.515 37.1757 111.46 37.1091C111.356 37.0061 111.272 36.8847 111.213 36.7511C111.128 36.5564 111.078 36.348 111.068 36.1358C111.064 36.0785 111.061 36.0212 111.061 35.9638V35.8278C111.061 35.6082 111.088 35.4034 111.144 35.2117C111.207 35.015 111.315 34.8359 111.46 34.689C111.577 34.554 111.72 34.4445 111.88 34.367C112.05 34.281 112.229 34.2146 112.417 34.1663C112.605 34.1188 112.795 34.0877 112.988 34.0737C113.181 34.0549 113.36 34.0451 113.525 34.0451H113.752ZM118.299 37.6965C118.262 37.6965 118.242 37.6867 118.237 37.6678C118.233 37.6629 118.23 37.6465 118.23 37.6178V34.825C118.231 34.8146 118.229 34.8041 118.226 34.7943C118.222 34.7844 118.217 34.7754 118.21 34.7676C118.191 34.7581 118.169 34.7533 118.148 34.7537H116.64C116.617 34.7537 116.601 34.7463 116.592 34.7324C116.585 34.7259 116.58 34.7181 116.577 34.7095C116.573 34.7009 116.571 34.6917 116.571 34.6824V34.1598C116.571 34.1352 116.578 34.1163 116.592 34.1024C116.601 34.0877 116.617 34.0803 116.64 34.0803H120.908C120.931 34.0803 120.949 34.0885 120.963 34.1024C120.972 34.1203 120.976 34.1399 120.977 34.1598V34.6824C120.976 34.6996 120.971 34.7163 120.963 34.7316C120.956 34.7389 120.947 34.7447 120.938 34.7485C120.928 34.7523 120.918 34.7541 120.908 34.7537H119.325C119.306 34.7537 119.293 34.7586 119.283 34.7685C119.27 34.7775 119.263 34.7971 119.263 34.8258V37.6178C119.263 37.6271 119.261 37.6363 119.257 37.6449C119.254 37.6535 119.249 37.6613 119.242 37.6678C119.228 37.6867 119.205 37.6965 119.173 37.6965H118.299ZM125.455 35.813C125.455 35.6942 125.435 35.5672 125.393 35.4337C125.355 35.2908 125.274 35.1634 125.16 35.0691C125.085 34.9913 124.996 34.9279 124.897 34.8823C124.795 34.8292 124.686 34.7885 124.574 34.7611C124.464 34.7323 124.351 34.7131 124.237 34.7037C124.132 34.6901 124.026 34.683 123.92 34.6824C123.778 34.6824 123.629 34.6915 123.473 34.7111C123.325 34.7291 123.179 34.7649 123.039 34.8176C122.901 34.8709 122.772 34.9486 122.661 35.047C122.547 35.1528 122.461 35.2858 122.413 35.4337L122.372 35.6344C122.358 35.693 122.351 35.7529 122.351 35.813V35.9711C122.351 36.2382 122.424 36.4627 122.571 36.6437C122.718 36.8207 122.908 36.9469 123.143 37.0239C123.249 37.0657 123.36 37.0943 123.473 37.1091C123.601 37.1238 123.751 37.1312 123.92 37.1312C124.154 37.1312 124.375 37.1066 124.581 37.0591C124.788 37.0067 124.978 36.8969 125.152 36.7298C125.258 36.6298 125.334 36.5168 125.38 36.3939C125.431 36.2589 125.457 36.1155 125.455 35.9711V35.813ZM124.017 34.0451C124.145 34.0451 124.281 34.05 124.423 34.059C124.708 34.0787 124.989 34.1292 125.263 34.2097C125.401 34.2482 125.527 34.2982 125.641 34.3597C125.793 34.4555 125.926 34.5579 126.04 34.6677C126.155 34.7726 126.252 34.9086 126.33 35.0757C126.365 35.1383 126.39 35.206 126.405 35.2764L126.447 35.4771L126.474 35.6557C126.484 35.7131 126.488 35.7704 126.488 35.8278V35.9638C126.488 36.0785 126.474 36.1981 126.447 36.3218C126.423 36.457 126.384 36.5889 126.33 36.715C126.215 36.9444 126.071 37.1287 125.896 37.2672C125.727 37.405 125.536 37.5138 125.332 37.5892C125.125 37.662 124.909 37.7101 124.691 37.7325C124.467 37.7564 124.242 37.7684 124.017 37.7686H123.79C123.515 37.7686 123.237 37.7489 122.957 37.7112C122.676 37.6776 122.407 37.5846 122.165 37.4384C122.076 37.3969 121.99 37.3467 121.91 37.2885C121.842 37.2359 121.78 37.1757 121.725 37.1091C121.62 37.0064 121.536 36.8849 121.477 36.7511C121.392 36.5564 121.343 36.348 121.332 36.1358C121.328 36.0785 121.326 36.0212 121.326 35.9638V35.8278C121.326 35.6082 121.353 35.4034 121.408 35.2117C121.471 35.015 121.579 34.8359 121.725 34.689C121.841 34.554 121.984 34.4445 122.145 34.367C122.314 34.281 122.493 34.2146 122.681 34.1663C122.87 34.1188 123.06 34.0877 123.252 34.0737C123.446 34.0549 123.624 34.0451 123.79 34.0451H124.017ZM128.246 35.8999C128.246 36.0522 128.271 36.1948 128.322 36.3292C128.377 36.4627 128.457 36.5823 128.563 36.6872C128.627 36.7445 128.691 36.7937 128.755 36.8371C128.824 36.8805 128.898 36.9166 128.976 36.9444C129.017 36.9641 129.065 36.9829 129.12 37.0018L129.285 37.0452C129.345 37.0542 129.403 37.064 129.457 37.0739C129.651 37.0879 129.845 37.0782 130.036 37.0452C130.169 37.0206 130.291 36.9805 130.4 36.9231C130.511 36.8658 130.607 36.7896 130.69 36.6937C130.772 36.5938 130.841 36.4701 130.896 36.3218C130.94 36.1902 130.963 36.0525 130.965 35.9138V35.7917C130.965 35.6582 130.942 35.5173 130.896 35.3698C130.85 35.2223 130.781 35.0994 130.69 35.0044C130.628 34.9311 130.553 34.8702 130.469 34.825C130.383 34.7776 130.29 34.7418 130.194 34.7185C130.098 34.6898 129.998 34.6706 129.898 34.6611C129.804 34.6518 129.71 34.6469 129.616 34.6464C129.446 34.6464 129.279 34.671 129.113 34.7177C128.957 34.7633 128.811 34.8363 128.68 34.9331C128.55 35.0254 128.442 35.1451 128.363 35.2838C128.282 35.4405 128.241 35.6152 128.246 35.7917V35.8999ZM127.214 34.1663C127.214 34.1426 127.218 34.1188 127.227 34.095C127.241 34.0705 127.266 34.059 127.303 34.059H128.15C128.187 34.059 128.211 34.0713 128.225 34.095C128.239 34.1196 128.246 34.1426 128.246 34.1663V34.5751C128.298 34.5137 128.361 34.4626 128.432 34.4244C128.52 34.3717 128.612 34.3262 128.707 34.2884C128.799 34.247 128.893 34.2112 128.99 34.1811C129.086 34.1483 129.168 34.1237 129.237 34.1098C129.43 34.0664 129.655 34.0442 129.912 34.0442H130.015C130.148 34.0442 130.283 34.0549 130.421 34.0737C130.559 34.0877 130.695 34.1163 130.827 34.1598C130.961 34.1974 131.087 34.2499 131.206 34.3171C131.329 34.3842 131.44 34.4694 131.537 34.5751C131.706 34.7513 131.823 34.9307 131.887 35.1117C131.951 35.2928 131.984 35.5083 131.984 35.7565V35.8851C131.984 36.2095 131.931 36.4864 131.825 36.7158C131.724 36.9452 131.583 37.1337 131.398 37.2811C131.211 37.4286 130.996 37.5359 130.766 37.5965C130.512 37.6646 130.25 37.6982 129.988 37.6965H129.905C129.809 37.6965 129.701 37.6916 129.581 37.6826C129.461 37.668 129.342 37.6489 129.223 37.6252C129.106 37.5971 128.991 37.5613 128.879 37.5179C128.775 37.4781 128.677 37.4226 128.59 37.3532L128.48 37.2811L128.363 37.1886C128.317 37.164 128.285 37.1599 128.267 37.1738C128.253 37.1886 128.246 37.2148 128.246 37.2525V38.8779C128.246 38.9024 128.239 38.9254 128.225 38.95C128.211 38.9737 128.187 38.9852 128.15 38.9852H127.303C127.266 38.9852 127.241 38.9737 127.227 38.95C127.218 38.927 127.214 38.9025 127.214 38.8779V34.1663ZM133.741 36.9592C133.741 37.0067 133.773 37.0304 133.837 37.0304H135.2C135.242 37.0304 135.295 37.028 135.359 37.0239C135.423 37.019 135.485 37.0091 135.545 36.9952C135.603 36.9787 135.658 36.9545 135.71 36.9231C135.758 36.8927 135.794 36.8475 135.813 36.7945C135.841 36.7543 135.858 36.7073 135.862 36.6585V36.6224C135.862 36.5948 135.854 36.5676 135.84 36.5438L135.813 36.4725C135.795 36.4247 135.761 36.3844 135.717 36.3578C135.688 36.3304 135.652 36.3107 135.613 36.3005C135.567 36.2813 135.519 36.2692 135.469 36.2644C135.419 36.2551 135.368 36.2504 135.318 36.2505C135.279 36.2458 135.24 36.243 135.2 36.2423H133.824C133.768 36.2423 133.741 36.2644 133.741 36.3079V36.9592ZM133.741 35.5197C133.741 35.5345 133.748 35.5459 133.762 35.5558C133.776 35.5697 133.787 35.5771 133.796 35.5771H135.29C135.386 35.5771 135.492 35.582 135.607 35.5918C135.722 35.5959 135.836 35.6107 135.951 35.6344C136.071 35.6533 136.183 35.6844 136.288 35.7278C136.398 35.7655 136.49 35.8179 136.564 35.8851C136.692 35.9752 136.777 36.0883 136.819 36.221C136.868 36.3406 136.894 36.4701 136.894 36.6085V36.6577C136.894 36.7969 136.876 36.9305 136.839 37.0591C136.777 37.189 136.685 37.3021 136.57 37.3885C136.485 37.4567 136.39 37.5122 136.288 37.5531C136.18 37.592 136.07 37.6232 135.957 37.6465C135.841 37.6654 135.724 37.6796 135.607 37.6891C135.492 37.694 135.386 37.6973 135.29 37.6973H132.784C132.734 37.6973 132.709 37.6727 132.709 37.6252V34.1876C132.709 34.1393 132.736 34.1155 132.791 34.1155H133.659C133.714 34.1155 133.741 34.1401 133.741 34.1876V35.5197ZM138.147 34.0877C138.197 34.0877 138.227 34.095 138.236 34.109C138.25 34.1237 138.257 34.1499 138.257 34.1884V37.5679C138.253 37.5881 138.246 37.6074 138.236 37.6252C138.227 37.6539 138.195 37.6678 138.14 37.6678H137.341C137.295 37.6678 137.263 37.6563 137.245 37.6318C137.234 37.6121 137.227 37.5904 137.224 37.5679V34.1876C137.224 34.154 137.229 34.1303 137.238 34.1155C137.252 34.0967 137.284 34.0868 137.335 34.0868L138.147 34.0877ZM142.909 37.6965C142.867 37.6965 142.847 37.6719 142.847 37.6252V35.2903C142.847 35.2625 142.835 35.2453 142.812 35.2412C142.788 35.2365 142.764 35.2415 142.743 35.2551L140.32 37.6604C140.302 37.685 140.274 37.6965 140.238 37.6965H139.294C139.284 37.697 139.274 37.6953 139.265 37.6916C139.255 37.688 139.247 37.6824 139.239 37.6752C139.228 37.6611 139.22 37.6436 139.219 37.6252V34.1876C139.219 34.1393 139.244 34.1155 139.294 34.1155H140.176C140.222 34.1155 140.245 34.1401 140.245 34.1876V36.5143C140.245 36.5471 140.256 36.5667 140.279 36.5717C140.302 36.5766 140.325 36.5692 140.348 36.5504L142.743 34.1581C142.759 34.1481 142.775 34.1389 142.792 34.1303C142.808 34.1199 142.827 34.1147 142.847 34.1155H143.796C143.847 34.1155 143.872 34.1401 143.872 34.1876V37.6244C143.872 37.6719 143.847 37.6957 143.796 37.6957L142.909 37.6965ZM140.141 32.7703C140.141 32.713 140.169 32.6843 140.224 32.6843H140.706C140.766 32.6843 140.803 32.7056 140.816 32.749C140.835 32.7916 140.86 32.8424 140.892 32.8989C140.939 32.9603 141 33.0094 141.07 33.0423C141.153 33.0857 141.293 33.107 141.491 33.107C141.688 33.107 141.83 33.0857 141.918 33.0423C141.989 33.012 142.051 32.9623 142.096 32.8989C142.128 32.8523 142.153 32.802 142.172 32.749C142.19 32.7056 142.225 32.6843 142.276 32.6843H142.757C142.821 32.6843 142.853 32.713 142.853 32.7703C142.847 32.9369 142.8 33.0994 142.716 33.243C142.639 33.3613 142.535 33.4595 142.413 33.5297C142.28 33.5995 142.135 33.6455 141.986 33.6657C141.822 33.6899 141.657 33.7017 141.491 33.701C141.32 33.701 141.158 33.6895 141.002 33.6657C140.855 33.6449 140.713 33.5989 140.582 33.5297C140.458 33.4631 140.352 33.3672 140.272 33.2504C140.188 33.1045 140.143 32.939 140.141 32.7703ZM43.392 43.5632C43.4518 43.5632 43.4846 43.587 43.4887 43.6345C43.5049 43.7393 43.5529 43.8365 43.6263 43.913C43.7001 43.99 43.7918 44.0523 43.9016 44.0998C44.0122 44.1432 44.1335 44.1735 44.267 44.1932C44.5086 44.227 44.7534 44.2316 44.9961 44.2071C45.142 44.198 45.2871 44.1789 45.4304 44.1498C45.577 44.117 45.7056 44.0687 45.8154 44.0064C45.926 43.945 45.9809 43.8614 45.9809 43.7557V43.7066C45.9809 43.6058 45.9506 43.5321 45.8908 43.4837C45.8241 43.433 45.7463 43.3987 45.6638 43.3838C45.5688 43.3641 45.4716 43.3569 45.3746 43.3625H45.0928L44.0196 43.3477C43.997 43.348 43.975 43.3405 43.9573 43.3264C43.9506 43.3199 43.9453 43.3122 43.9417 43.3036C43.938 43.295 43.9361 43.2858 43.936 43.2765V42.7464C43.936 42.7276 43.945 42.7103 43.9639 42.6972C43.9792 42.6839 43.9985 42.6761 44.0188 42.6751L45.092 42.6604L45.237 42.6538C45.3198 42.6489 45.4066 42.6374 45.4992 42.6178C45.595 42.5932 45.6794 42.5604 45.7531 42.5178C45.8318 42.4744 45.8703 42.4146 45.8703 42.3384V42.2524C45.8703 42.195 45.8408 42.1459 45.781 42.1025C45.7094 42.0539 45.6302 42.0176 45.5467 41.9951C45.4374 41.9588 45.3245 41.9346 45.21 41.923C45.0798 41.9035 44.9483 41.8939 44.8167 41.8944C44.6611 41.8944 44.5054 41.9067 44.3498 41.9304C44.2032 41.9516 44.0596 41.9901 43.9221 42.0451C43.7992 42.0926 43.6927 42.1574 43.6059 42.2385C43.522 42.3088 43.4678 42.4083 43.4543 42.517C43.4363 42.5604 43.4084 42.5825 43.3724 42.5825H42.5122C42.4605 42.5825 42.436 42.558 42.436 42.5105V42.4957C42.436 42.2573 42.5048 42.0566 42.6424 41.8944C42.7847 41.7234 42.9633 41.5863 43.1651 41.4929C43.3886 41.3908 43.6247 41.3189 43.8672 41.2791C44.106 41.2367 44.3481 41.2148 44.5906 41.2136H44.9003C45.0052 41.2136 45.1272 41.2218 45.2649 41.2357C45.5555 41.257 45.8423 41.3148 46.1185 41.4077C46.2603 41.4552 46.3864 41.5151 46.497 41.5863C46.6068 41.6535 46.6969 41.7346 46.7657 41.8305C46.8347 41.9263 46.8709 42.0418 46.869 42.1598V42.209C46.8746 42.3916 46.8186 42.5708 46.71 42.7177C46.6052 42.8513 46.4348 42.9307 46.2013 42.9545C46.3897 42.9635 46.5568 43.0159 46.7035 43.1118C46.8509 43.2019 46.9419 43.3289 46.9787 43.4911C46.9983 43.5804 47.0077 43.6717 47.0066 43.7631V43.8139C47.0103 43.9153 46.9933 44.0164 46.9566 44.111C46.92 44.2057 46.8646 44.2919 46.7936 44.3644C46.647 44.5137 46.471 44.6309 46.2766 44.7085C46.0595 44.7924 45.8332 44.8502 45.6024 44.8806C45.3632 44.9133 45.1412 44.9297 44.9347 44.9297H44.6037C44.3973 44.9297 44.1654 44.9133 43.909 44.8806C43.6645 44.8539 43.4254 44.791 43.1995 44.6938C42.9863 44.6033 42.796 44.4665 42.6424 44.2932C42.495 44.1211 42.4212 43.8942 42.4212 43.6132C42.4212 43.5886 42.431 43.5747 42.4499 43.5698C42.4678 43.5653 42.4863 43.5631 42.5048 43.5632H43.392ZM51.1701 43.2765C51.166 43.2003 51.1176 43.1667 51.0259 43.1765L49.2776 43.3486C49.2063 43.3558 49.1353 43.3651 49.0646 43.3764C48.9734 43.3868 48.8834 43.406 48.7959 43.4338C48.7126 43.4604 48.6337 43.4991 48.5616 43.5484C48.5311 43.5673 48.5062 43.5937 48.4892 43.6252C48.4722 43.6567 48.4638 43.6921 48.4649 43.7279V43.7991C48.4739 43.8614 48.4862 43.9138 48.4993 43.9564C48.5103 43.9952 48.5318 44.0301 48.5616 44.0572C48.614 44.1091 48.6776 44.1484 48.7475 44.1719C48.7872 44.1919 48.8286 44.2083 48.8712 44.2211C48.9171 44.2309 48.9654 44.2432 49.0154 44.2571C49.144 44.2817 49.28 44.2932 49.4218 44.2932C49.64 44.2921 49.8581 44.2826 50.0755 44.2645C50.1902 44.2506 50.3033 44.2317 50.4131 44.2071C50.5237 44.1834 50.6244 44.1547 50.7162 44.1211C50.7879 44.1026 50.8543 44.0678 50.9104 44.0195C50.9665 43.9712 51.0108 43.9107 51.0398 43.8426C51.0759 43.7705 51.1053 43.6967 51.1291 43.6205C51.152 43.5386 51.166 43.451 51.1701 43.3551V43.2765ZM51.4388 44.4865C51.3052 44.6438 51.1496 44.7487 50.971 44.8019C50.7965 44.8543 50.613 44.892 50.4204 44.9166C50.0958 44.9555 49.7692 44.9747 49.4423 44.974H49.3464C49.1531 44.974 48.9491 44.9617 48.7336 44.9379C48.53 44.9206 48.3302 44.8723 48.1413 44.7945C47.9665 44.7213 47.8127 44.6055 47.694 44.4578C47.5793 44.3054 47.5219 44.0998 47.5219 43.8417V43.8204C47.5219 43.4821 47.6481 43.2339 47.9004 43.0757C48.029 42.9946 48.1667 42.9307 48.3141 42.8824C48.4608 42.8349 48.6214 42.8037 48.7959 42.7898L50.9505 42.5531C51.0783 42.5481 51.1611 42.5154 51.1979 42.4531C51.2203 42.4304 51.2378 42.4036 51.2497 42.374C51.2615 42.3445 51.2673 42.3129 51.2667 42.2811C51.2645 42.2376 51.2577 42.1945 51.2463 42.1524C51.2258 42.1262 51.2027 42.102 51.1774 42.0803C51.1511 42.0543 51.1206 42.0327 51.0873 42.0164C51.0127 41.9848 50.9342 41.963 50.8538 41.9517C50.7585 41.9321 50.6618 41.9201 50.5646 41.9157C50.4685 41.9063 50.372 41.9016 50.2754 41.9017H49.9592C49.7528 41.9017 49.5643 41.9067 49.3939 41.9157C49.2097 41.9289 49.0275 41.9627 48.8508 42.0164C48.7221 42.059 48.6377 42.1025 48.596 42.1451C48.555 42.1877 48.5296 42.2696 48.5198 42.3884C48.5116 42.4408 48.4723 42.467 48.4034 42.467H47.6743C47.6006 42.467 47.5637 42.4457 47.5637 42.4031V42.3884C47.5637 42.2262 47.5883 42.0828 47.6391 41.9591C47.7006 41.8272 47.7955 41.7137 47.9143 41.6297C48.0249 41.5298 48.1527 41.4528 48.2994 41.4004C48.4469 41.343 48.5984 41.3004 48.7541 41.2717C48.9087 41.2429 49.0654 41.2262 49.2227 41.2218C49.3833 41.2168 49.5324 41.2136 49.67 41.2136H49.8765C50.1607 41.2136 50.4041 41.2218 50.6056 41.2357C50.8121 41.2504 50.98 41.2742 51.1086 41.3078C51.2045 41.3365 51.3012 41.3692 51.3978 41.4077C51.4986 41.4462 51.5903 41.4913 51.6731 41.5437C51.755 41.5962 51.8288 41.6584 51.8927 41.7297C51.9571 41.7964 52.0046 41.8776 52.0311 41.9665C52.0721 42.109 52.0901 42.2475 52.086 42.3818L52.0172 43.3838C52.0172 43.446 52.0213 43.5173 52.0311 43.5984C52.0393 43.6803 52.054 43.7754 52.0721 43.8852C52.095 44.0949 52.2351 44.1998 52.4923 44.1998H52.6087C52.6456 44.1998 52.6734 44.2219 52.6914 44.2653C52.707 44.3235 52.7139 44.3837 52.7119 44.4439V44.7659C52.7119 44.8322 52.6775 44.8658 52.6087 44.8658H52.2925C52.1912 44.8664 52.0901 44.8618 51.9893 44.8519C51.9081 44.8433 51.8276 44.8288 51.7485 44.8085C51.6872 44.7884 51.6292 44.7594 51.5764 44.7224C51.532 44.6917 51.5001 44.6461 51.4863 44.5938L51.4388 44.4865ZM57.8503 43.1765C57.8503 43.4911 57.779 43.7631 57.6373 43.9925C57.4878 44.2274 57.2755 44.4159 57.0245 44.5365C56.9127 44.5951 56.7979 44.6477 56.6804 44.6938C56.5703 44.737 56.4576 44.7731 56.3429 44.8019C56.2331 44.8257 56.1159 44.8429 55.9922 44.8511C55.8638 44.8611 55.7351 44.866 55.6063 44.8658H55.4753C55.2279 44.8658 54.9845 44.8396 54.7461 44.7872C54.5239 44.7345 54.3088 44.6552 54.1055 44.5512C53.9214 44.4573 53.7539 44.3339 53.6098 44.1858C53.4807 44.0449 53.3865 43.8757 53.3345 43.6918C53.2679 43.4539 53.2332 43.2081 53.2313 42.961V42.6251C53.2313 42.4482 53.2387 42.2737 53.2526 42.1025C53.2657 41.9304 53.2911 41.7608 53.328 41.5945C53.3829 41.2357 53.5246 40.935 53.754 40.6917C53.9859 40.4498 54.2784 40.2744 54.6011 40.1838C54.9321 40.0781 55.3679 40.0256 55.9095 40.0256H56.6943C56.7641 40.0256 56.8336 40.016 56.9008 39.997C56.9557 39.9732 56.9827 39.9593 56.9827 39.9544C56.9966 39.9396 57.004 39.9257 57.004 39.9109C57.0122 39.8782 57.0269 39.8585 57.045 39.8536C57.0701 39.8488 57.0956 39.8466 57.1212 39.847H57.575C57.6389 39.847 57.6717 39.8708 57.6717 39.9183C57.6717 40.1141 57.6209 40.2837 57.5201 40.4263C57.4235 40.5655 57.2653 40.6532 57.045 40.6917C56.9222 40.713 56.7976 40.7226 56.673 40.7204H55.6203C55.3499 40.7204 55.1123 40.7531 54.9108 40.8203C54.6837 40.9 54.4819 41.0385 54.3258 41.2218C54.1792 41.3938 54.1055 41.5937 54.1055 41.8231V42.1016C54.2791 41.8643 54.5183 41.6829 54.7936 41.5798C55.0954 41.4792 55.412 41.4307 55.7301 41.4364H55.7645C56.0641 41.4373 56.3625 41.4758 56.6525 41.5511C56.8131 41.6035 56.9598 41.6658 57.0933 41.7371C57.2309 41.8034 57.362 41.8993 57.4857 42.0238C57.729 42.3106 57.8503 42.6489 57.8503 43.0397V43.1765ZM54.1677 43.1118V43.2117C54.1677 43.3363 54.1923 43.46 54.2431 43.5845C54.2941 43.7032 54.3748 43.8068 54.4774 43.8852C54.5282 43.9327 54.5872 43.9753 54.656 44.0138C54.7256 44.0523 54.7986 44.0859 54.8772 44.1137C55.0813 44.1829 55.295 44.2191 55.5105 44.2211C55.6703 44.2211 55.8292 44.2071 55.9857 44.1785C56.1454 44.1498 56.288 44.0974 56.4117 44.0212C56.536 43.9443 56.64 43.8387 56.7148 43.7131C56.7926 43.5845 56.832 43.4174 56.832 43.2117V43.1052C56.832 42.9856 56.8066 42.8611 56.7558 42.7325C56.7158 42.6136 56.6526 42.5039 56.5698 42.4097C56.4328 42.2766 56.261 42.1849 56.0741 42.1451C55.8891 42.1019 55.6997 42.0801 55.5097 42.0803C55.3589 42.0803 55.2025 42.1025 55.0427 42.1459C54.8885 42.1824 54.7416 42.245 54.6085 42.331C54.4799 42.413 54.3742 42.5178 54.2914 42.6464C54.2059 42.7863 54.1629 42.9479 54.1677 43.1118ZM62.4275 42.9832C62.4275 42.8636 62.407 42.7374 62.3652 42.603C62.3272 42.4602 62.2456 42.3327 62.1317 42.2385C62.0565 42.1609 61.9676 42.0979 61.8696 42.0525C61.7669 41.9989 61.6583 41.9577 61.546 41.9296C61.4355 41.9012 61.3229 41.8823 61.2093 41.8731C61.1041 41.8594 60.9982 41.8523 60.8922 41.8518C60.7505 41.8518 60.6014 41.8608 60.4449 41.8804C60.2964 41.8984 60.1506 41.9342 60.0107 41.9869C59.8721 42.0403 59.7442 42.118 59.633 42.2163C59.5224 42.3171 59.4397 42.4457 59.3848 42.603L59.3438 42.8037C59.3304 42.8626 59.3236 42.9228 59.3233 42.9832V43.1405C59.3233 43.4075 59.397 43.632 59.5437 43.8139C59.6903 43.99 59.8804 44.117 60.1147 44.1932C60.2065 44.2309 60.3163 44.2596 60.4449 44.2784C60.5735 44.2932 60.7226 44.3005 60.8922 44.3005C61.1265 44.3005 61.3469 44.276 61.5533 44.2284C61.7598 44.176 61.9499 44.0662 62.1244 43.8991C62.2253 43.8063 62.3032 43.6913 62.3521 43.5632C62.4032 43.4282 62.4288 43.2848 62.4275 43.1405V42.9832ZM60.9889 41.2136C61.1175 41.2136 61.2527 41.2193 61.3952 41.2283C61.537 41.2381 61.677 41.2553 61.8147 41.2791C61.9572 41.3029 62.0973 41.3365 62.235 41.3791C62.3726 41.4176 62.4988 41.4675 62.6135 41.5298C62.765 41.6248 62.8977 41.7272 63.0124 41.837C63.1271 41.9427 63.2238 42.0779 63.3016 42.245C63.3367 42.3078 63.3621 42.3754 63.377 42.4457L63.418 42.6464L63.4458 42.825C63.4557 42.8824 63.4598 42.9397 63.4598 42.9971V43.1331C63.4598 43.2478 63.4458 43.3674 63.4188 43.4911C63.3952 43.6263 63.3559 43.7583 63.3016 43.8843C63.1869 44.1137 63.0419 44.2981 62.8674 44.4365C62.6978 44.575 62.5102 44.6823 62.3038 44.7585C62.0966 44.8313 61.8816 44.8795 61.6631 44.9019C61.4392 44.9257 61.2141 44.9377 60.9889 44.9379H60.7619C60.4858 44.9379 60.2089 44.9182 59.9287 44.8806C59.6486 44.847 59.3789 44.7543 59.1373 44.6086C59.0477 44.5668 58.9624 44.5163 58.8826 44.4578C58.814 44.4055 58.7516 44.3456 58.6966 44.2792C58.5926 44.1763 58.5087 44.0549 58.4492 43.9212C58.3641 43.7263 58.315 43.5175 58.3042 43.3051C58.2999 43.2479 58.2977 43.1905 58.2976 43.1331V42.9971C58.2976 42.7775 58.3246 42.5727 58.3795 42.381C58.4393 42.1901 58.545 42.0164 58.6966 41.8583C58.8113 41.7248 58.9506 41.6175 59.1169 41.5364C59.2865 41.4503 59.465 41.384 59.6535 41.3356C59.8419 41.2881 60.032 41.257 60.2245 41.2431C60.417 41.2242 60.5964 41.2144 60.7619 41.2144L60.9889 41.2136ZM65.5357 44.8658C65.4989 44.8658 65.4784 44.8568 65.4735 44.8371C65.4694 44.8322 65.4669 44.8158 65.4669 44.788V41.9943C65.4675 41.9839 65.466 41.9734 65.4625 41.9636C65.459 41.9537 65.4535 41.9447 65.4464 41.937C65.4272 41.9273 65.4058 41.9225 65.3842 41.923H63.8767C63.8538 41.923 63.8374 41.9157 63.8284 41.9017C63.8219 41.8952 63.8167 41.8874 63.8132 41.8788C63.8097 41.8702 63.8079 41.861 63.8079 41.8518V41.3291C63.8079 41.3045 63.8145 41.2857 63.8284 41.2717C63.8374 41.257 63.853 41.2504 63.8767 41.2504H68.1451C68.1672 41.2504 68.186 41.257 68.1992 41.2717C68.2081 41.2895 68.2129 41.3092 68.2131 41.3291V41.8518C68.2122 41.8692 68.2074 41.8863 68.1992 41.9017C68.192 41.9089 68.1834 41.9144 68.1739 41.9181C68.1645 41.9218 68.1544 41.9235 68.1443 41.923H66.5615C66.5426 41.923 66.5287 41.928 66.5205 41.9378C66.5066 41.9468 66.4992 41.9665 66.4992 41.9951V44.7872C66.4993 44.7964 66.4975 44.8056 66.494 44.8142C66.4905 44.8228 66.4853 44.8306 66.4787 44.8371C66.4648 44.8568 66.4418 44.8658 66.4099 44.8658H65.5357ZM72.4626 44.8658C72.4175 44.8658 72.3938 44.8421 72.3938 44.7945V42.4597C72.3938 42.4318 72.3823 42.4146 72.3602 42.4105C72.3494 42.4079 72.3382 42.4078 72.3274 42.4102C72.3166 42.4126 72.3065 42.4175 72.2979 42.4244L69.8745 44.8306C69.8641 44.8418 69.8514 44.8508 69.8373 44.8568C69.8232 44.8629 69.808 44.866 69.7926 44.8658H68.8423C68.8321 44.8663 68.822 44.8646 68.8126 44.861C68.8031 44.8573 68.7945 44.8517 68.7874 44.8445C68.7756 44.8303 68.7685 44.8129 68.7669 44.7945V41.3578C68.7669 41.3102 68.7915 41.2857 68.8423 41.2857H69.7303C69.7762 41.2857 69.7992 41.3102 69.7992 41.3578V43.6844C69.7992 43.7172 69.8082 43.7369 69.827 43.7418C69.85 43.7467 69.8729 43.7393 69.8958 43.7205L72.2979 41.3283C72.3108 41.3179 72.3245 41.3086 72.3389 41.3004C72.3552 41.29 72.3744 41.2849 72.3938 41.2857H73.3506C73.4014 41.2857 73.4268 41.3102 73.4268 41.3578V44.7945C73.4268 44.8421 73.4014 44.8658 73.3506 44.8658H72.4626ZM75.706 44.8658C75.6691 44.8658 75.6487 44.8568 75.6437 44.8371C75.6396 44.8322 75.6372 44.8158 75.6372 44.788V41.9943C75.6378 41.9839 75.6362 41.9734 75.6327 41.9636C75.6292 41.9537 75.6238 41.9447 75.6167 41.937C75.5974 41.9273 75.576 41.9225 75.5544 41.923H74.047C74.0241 41.923 74.0077 41.9157 73.9987 41.9017C73.9921 41.8952 73.987 41.8874 73.9835 41.8788C73.9799 41.8702 73.9782 41.861 73.9782 41.8518V41.3291C73.9782 41.3045 73.9847 41.2857 73.9987 41.2717C74.0077 41.257 74.0233 41.2504 74.047 41.2504H78.3153C78.3375 41.2504 78.3563 41.257 78.3694 41.2717C78.3784 41.2895 78.3831 41.3092 78.3833 41.3291V41.8518C78.3824 41.8692 78.3777 41.8863 78.3694 41.9017C78.3622 41.9089 78.3536 41.9144 78.3442 41.9181C78.3347 41.9218 78.3246 41.9235 78.3145 41.923H76.7317C76.7129 41.923 76.6989 41.928 76.6908 41.9378C76.6768 41.9468 76.6695 41.9665 76.6695 41.9951V44.7872C76.6695 44.7964 76.6678 44.8056 76.6643 44.8142C76.6607 44.8228 76.6555 44.8306 76.649 44.8371C76.635 44.8568 76.6121 44.8658 76.5802 44.8658H75.706ZM78.7315 42.9971C78.7315 42.7775 78.7594 42.5727 78.8143 42.381C78.8741 42.1901 78.9798 42.0164 79.1313 41.8583C79.246 41.7248 79.3853 41.6175 79.5508 41.5364C79.7212 41.4503 79.8998 41.384 80.0882 41.3356C80.2766 41.2881 80.4667 41.257 80.6592 41.2431C80.8375 41.2247 81.0166 41.2152 81.1959 41.2144H81.4236C81.5522 41.2144 81.6874 41.2193 81.83 41.2283C81.9717 41.2381 82.1118 41.2553 82.2494 41.2791C82.392 41.3029 82.5312 41.3365 82.6689 41.3791C82.8065 41.4176 82.9335 41.4675 83.0482 41.5298C83.1989 41.6248 83.3325 41.7272 83.4472 41.837C83.5619 41.9427 83.6585 42.0779 83.7364 42.245C83.7714 42.3077 83.7969 42.3754 83.8117 42.4457L83.8535 42.6464C83.8576 42.6792 83.8601 42.7103 83.8601 42.7398C83.865 42.7677 83.8715 42.7972 83.8806 42.825H82.8548C82.8464 42.7894 82.8374 42.7539 82.8278 42.7185C82.8229 42.6794 82.8136 42.6409 82.8 42.6038C82.7621 42.4607 82.6804 42.333 82.5665 42.2385C82.4912 42.1609 82.4023 42.0979 82.3043 42.0525C82.2017 41.9989 82.093 41.9577 81.9807 41.9296C81.8703 41.9012 81.7576 41.8823 81.644 41.8731C81.5388 41.8594 81.433 41.8523 81.3269 41.8518C81.1844 41.8518 81.0353 41.8608 80.8796 41.8804C80.7311 41.8984 80.5854 41.9342 80.4454 41.9869C80.3066 42.0402 80.1784 42.1179 80.0669 42.2163C79.9571 42.3171 79.8744 42.4457 79.8195 42.603L79.7785 42.8037C79.7652 42.8626 79.7583 42.9228 79.7581 42.9832V43.1405C79.7581 43.4075 79.8318 43.632 79.9776 43.8139C80.1251 43.99 80.3151 44.117 80.5495 44.1932C80.6412 44.2309 80.751 44.2596 80.8796 44.2784C81.0082 44.2932 81.1573 44.3005 81.3269 44.3005C81.5612 44.3005 81.7816 44.276 81.9881 44.2284C82.2039 44.1705 82.4008 44.0569 82.5591 43.8991C82.6418 43.8297 82.7097 43.7444 82.759 43.6484C82.8037 43.5489 82.8314 43.4425 82.8409 43.3338H83.8806C83.8712 43.3593 83.8644 43.3856 83.8601 43.4125C83.8601 43.4388 83.8579 43.4651 83.8535 43.4911C83.8299 43.6263 83.7906 43.7583 83.7364 43.8843C83.6339 44.0981 83.4857 44.2866 83.3022 44.4365C83.1332 44.5744 82.9424 44.6832 82.7377 44.7585C82.5311 44.8312 82.3166 44.8794 82.0987 44.9019C81.8734 44.9256 81.6481 44.9379 81.4236 44.9379H81.1959C80.9206 44.9379 80.6429 44.9182 80.3635 44.8806C80.0834 44.847 79.8136 44.7543 79.5721 44.6086C79.4824 44.5667 79.3971 44.5163 79.3173 44.4578C79.2488 44.4055 79.1864 44.3456 79.1313 44.2792C79.027 44.1764 78.9429 44.0549 78.8831 43.9212C78.7983 43.7262 78.7495 43.5175 78.7389 43.3051C78.7346 43.2479 78.7324 43.1905 78.7323 43.1331L78.7315 42.9971ZM87.6778 42.839C87.7188 42.839 87.7532 42.8349 87.781 42.825C87.8081 42.8111 87.822 42.7898 87.822 42.7611V42.0377C87.822 42.0091 87.8081 41.9878 87.781 41.973C87.7488 41.9578 87.7134 41.9505 87.6778 41.9517H86.4112C86.3564 41.9517 86.2777 41.9566 86.1769 41.9665C86.0744 41.9764 85.9729 41.9956 85.8738 42.0238C85.7818 42.0503 85.6956 42.094 85.6198 42.1524C85.5854 42.1748 85.5572 42.2056 85.5379 42.2418C85.5185 42.2781 85.5087 42.3186 85.5092 42.3597V42.4318C85.5092 42.5219 85.5436 42.594 85.6125 42.6464C85.6862 42.6989 85.7706 42.7398 85.8673 42.7677C85.968 42.7964 86.0688 42.816 86.1704 42.825C86.2711 42.8349 86.3514 42.8398 86.4112 42.8398H87.6778V42.839ZM87.795 43.5845C87.795 43.5362 87.7761 43.5124 87.7393 43.5124H87.0306C86.9896 43.5124 86.9569 43.5247 86.9339 43.5484L85.551 44.8232C85.5183 44.8519 85.4888 44.8658 85.4609 44.8658H84.4975C84.4696 44.8658 84.4516 44.8543 84.4426 44.8298C84.4336 44.806 84.4377 44.7896 84.4565 44.7806L85.8468 43.5058C85.7177 43.4955 85.589 43.4811 85.4609 43.4624C85.334 43.4394 85.2096 43.4037 85.0898 43.3559C84.9727 43.3048 84.8637 43.2369 84.7662 43.1544C84.6674 43.0652 84.5896 42.9552 84.5384 42.8324C84.4998 42.7072 84.4813 42.5767 84.4835 42.4457V42.4244C84.4835 42.2622 84.5089 42.1164 84.5597 41.9878C84.6097 41.8583 84.6974 41.7444 84.8211 41.6437C84.9019 41.5688 84.995 41.5083 85.0963 41.4651C85.1971 41.4176 85.3028 41.3815 85.4134 41.3578C85.5238 41.329 85.6364 41.3098 85.7501 41.3004C85.8648 41.2906 85.9729 41.2857 86.0737 41.2857H88.765C88.8207 41.2857 88.8477 41.3102 88.8477 41.3578V44.7945C88.8477 44.8421 88.8207 44.8658 88.765 44.8658H87.8843C87.8617 44.8659 87.8398 44.8584 87.822 44.8445C87.804 44.8257 87.795 44.8085 87.795 44.7945V43.5845ZM96.1481 42.9832C96.1481 42.8636 96.1268 42.7374 96.0859 42.603C96.0479 42.4599 95.9659 42.3324 95.8515 42.2385C95.7766 42.1609 95.688 42.0979 95.5902 42.0525C95.4876 41.9989 95.3789 41.9577 95.2666 41.9296C95.1562 41.9011 95.0435 41.8822 94.9299 41.8731C94.8247 41.8595 94.7188 41.8523 94.6128 41.8518C94.4633 41.8522 94.3139 41.8618 94.1655 41.8804C94.0173 41.8984 93.8718 41.9342 93.7321 41.9869C93.593 42.0402 93.4646 42.1179 93.3528 42.2163C93.2392 42.3224 93.1541 42.4554 93.1054 42.603L93.0644 42.8037C93.0507 42.8626 93.0436 42.9228 93.0431 42.9832V43.1405C93.0431 43.4075 93.1169 43.632 93.2635 43.8139C93.4102 43.99 93.601 44.117 93.8354 44.1932C93.9271 44.2309 94.0369 44.2596 94.1655 44.2784C94.2941 44.2932 94.4432 44.3005 94.6128 44.3005C94.8471 44.3005 95.0675 44.276 95.274 44.2284C95.4804 44.176 95.6705 44.0662 95.845 43.8991C95.9507 43.7991 96.026 43.6869 96.0719 43.5632C96.1237 43.4283 96.1496 43.2849 96.1481 43.1405V42.9832ZM94.7095 41.2136C94.8373 41.2136 94.9733 41.2193 95.115 41.2283C95.2576 41.2381 95.3977 41.2553 95.5353 41.2791C95.6779 41.3029 95.8171 41.3365 95.9548 41.3791C96.0924 41.4176 96.2186 41.4675 96.3341 41.5298C96.4848 41.6248 96.6184 41.7272 96.7331 41.837C96.8478 41.9427 96.9436 42.0779 97.0223 42.245C97.0573 42.3077 97.0828 42.3754 97.0976 42.4457L97.1394 42.6464L97.1665 42.825C97.1755 42.8824 97.1804 42.9397 97.1804 42.9971V43.1331C97.1804 43.2478 97.1664 43.3674 97.1394 43.4911C97.1158 43.6263 97.0765 43.7583 97.0223 43.8843C96.9076 44.1137 96.7626 44.2981 96.5881 44.4365C96.4185 44.575 96.23 44.6823 96.0236 44.7585C95.8167 44.8314 95.6019 44.8795 95.3838 44.9019C95.1598 44.9257 94.9347 44.9377 94.7095 44.9379H94.4817C94.2033 44.9377 93.9252 44.9185 93.6494 44.8806C93.369 44.8471 93.099 44.7543 92.8572 44.6086C92.7678 44.5668 92.6827 44.5163 92.6032 44.4578C92.5345 44.4057 92.4721 44.3458 92.4172 44.2792C92.313 44.1763 92.2288 44.0549 92.169 43.9212C92.0841 43.7263 92.0352 43.5175 92.0248 43.3051C92.0201 43.2479 92.0176 43.1905 92.0174 43.1331V42.9971C92.0174 42.7775 92.0453 42.5727 92.1002 42.381C92.1635 42.1844 92.2721 42.0053 92.4172 41.8583C92.5319 41.7248 92.672 41.6175 92.8367 41.5364C93.0071 41.4503 93.1857 41.384 93.3741 41.3356C93.5617 41.2881 93.7526 41.257 93.9451 41.2431C94.1377 41.2242 94.3171 41.2144 94.4817 41.2144L94.7095 41.2136ZM101.423 43.3412C101.373 43.3412 101.347 43.3625 101.347 43.4051V44.1711C101.347 44.2047 101.373 44.2219 101.423 44.2219H102.855C102.924 44.2219 102.995 44.2194 103.068 44.2137C103.146 44.2055 103.215 44.1907 103.275 44.1711C103.336 44.1497 103.39 44.113 103.433 44.0646C103.476 44.0123 103.499 43.9456 103.495 43.8778V43.6992C103.497 43.6678 103.492 43.6364 103.481 43.6069C103.471 43.5773 103.454 43.5502 103.433 43.5271C103.39 43.4784 103.336 43.4415 103.275 43.4198C103.21 43.3896 103.14 43.3702 103.068 43.3625C102.998 43.3485 102.927 43.3414 102.855 43.3412H101.423ZM101.416 41.9378C101.366 41.9378 101.341 41.9566 101.341 41.9951V42.6178C101.341 42.6604 101.366 42.6825 101.416 42.6825H102.745C102.854 42.6815 102.962 42.6694 103.068 42.6464C103.12 42.6336 103.169 42.6117 103.213 42.5817C103.234 42.5697 103.252 42.5532 103.266 42.5334C103.281 42.5136 103.291 42.491 103.295 42.467C103.303 42.4488 103.308 42.4294 103.309 42.4097C103.314 42.3909 103.316 42.3717 103.316 42.3523V42.2524C103.315 42.2153 103.305 42.179 103.289 42.1459C103.273 42.1002 103.241 42.0618 103.199 42.0377C103.155 42.0079 103.106 41.986 103.054 41.973C103.003 41.9584 102.95 41.9488 102.896 41.9443C102.846 41.94 102.795 41.9378 102.745 41.9378H101.416ZM100.432 44.8658C100.413 44.8657 100.394 44.8609 100.377 44.8519C100.368 44.8453 100.361 44.8367 100.356 44.8267C100.351 44.8167 100.349 44.8056 100.349 44.7945V41.3578C100.349 41.3332 100.358 41.3168 100.377 41.3078C100.392 41.2944 100.412 41.2866 100.432 41.2857H102.848C103.013 41.2857 103.183 41.2955 103.358 41.3143C103.523 41.3302 103.685 41.3688 103.839 41.429C103.986 41.4864 104.106 41.5699 104.197 41.6797C104.294 41.7846 104.342 41.9255 104.342 42.1025V42.331C104.342 42.3835 104.337 42.4367 104.328 42.4891C104.312 42.5657 104.286 42.6399 104.252 42.7103L104.183 42.7824C104.169 42.8029 104.15 42.8199 104.129 42.8324C104.105 42.8518 104.079 42.8686 104.052 42.8824L103.997 42.9111C103.969 42.9302 103.939 42.9469 103.908 42.961C104.037 43.0094 104.156 43.0708 104.266 43.1478C104.381 43.2265 104.46 43.3472 104.487 43.4837C104.5 43.5747 104.507 43.6681 104.507 43.7631V43.8352C104.507 44.0351 104.464 44.2022 104.376 44.3358C104.294 44.4652 104.179 44.5701 104.032 44.6512C103.876 44.7321 103.709 44.7877 103.536 44.8158C103.349 44.8486 103.151 44.8658 102.945 44.8658H100.432ZM108.703 43.2765C108.698 43.2003 108.65 43.1667 108.558 43.1765L106.81 43.3486C106.739 43.3559 106.668 43.3652 106.597 43.3764C106.506 43.3868 106.416 43.406 106.328 43.4338C106.245 43.4605 106.166 43.4991 106.094 43.5484C106.064 43.5674 106.039 43.5939 106.022 43.6254C106.005 43.6569 105.997 43.6922 105.998 43.7279V43.7991C106.007 43.8614 106.019 43.9138 106.032 43.9564C106.043 43.995 106.065 44.0298 106.094 44.0572C106.146 44.1091 106.21 44.1483 106.28 44.1719C106.32 44.1919 106.362 44.2083 106.404 44.2211C106.45 44.2309 106.498 44.2432 106.549 44.2571C106.677 44.2817 106.812 44.2932 106.955 44.2932C107.173 44.2935 107.391 44.2839 107.609 44.2645C107.723 44.2506 107.836 44.2317 107.946 44.2071C108.056 44.1834 108.157 44.1547 108.249 44.1211C108.32 44.1026 108.387 44.0679 108.443 44.0196C108.499 43.9713 108.543 43.9107 108.572 43.8426C108.609 43.7705 108.639 43.6967 108.661 43.6205C108.684 43.5386 108.698 43.451 108.703 43.3551V43.2765ZM108.972 44.4865C108.838 44.6438 108.683 44.7487 108.503 44.8019C108.323 44.8556 108.139 44.8939 107.953 44.9166C107.628 44.9555 107.302 44.9747 106.975 44.974H106.879C106.686 44.974 106.482 44.9617 106.267 44.9379C106.063 44.9206 105.863 44.8723 105.674 44.7945C105.5 44.7215 105.346 44.6057 105.227 44.4578C105.112 44.3054 105.055 44.0998 105.055 43.8417V43.8204C105.055 43.4821 105.181 43.2339 105.434 43.0757C105.562 42.9946 105.7 42.9307 105.846 42.8824C105.993 42.8349 106.154 42.8037 106.328 42.7898L108.483 42.5531C108.611 42.5481 108.694 42.5154 108.73 42.4531C108.753 42.4304 108.77 42.4036 108.782 42.374C108.794 42.3445 108.8 42.3129 108.799 42.2811C108.797 42.2376 108.79 42.1944 108.779 42.1524C108.758 42.126 108.735 42.1018 108.71 42.0803C108.684 42.0543 108.654 42.0327 108.62 42.0164C108.546 41.9847 108.467 41.9629 108.386 41.9517C108.291 41.9321 108.194 41.92 108.097 41.9157C108.001 41.9063 107.905 41.9016 107.809 41.9017H107.492C107.285 41.9017 107.097 41.9067 106.927 41.9157C106.743 41.9289 106.56 41.9627 106.383 42.0164C106.255 42.059 106.17 42.1025 106.128 42.1451C106.087 42.1877 106.062 42.2696 106.053 42.3884C106.044 42.4408 106.005 42.467 105.936 42.467H105.207C105.133 42.467 105.096 42.4457 105.096 42.4031V42.3884C105.096 42.2262 105.121 42.0828 105.172 41.9591C105.227 41.8346 105.319 41.7248 105.448 41.6297C105.557 41.5298 105.686 41.4528 105.833 41.4004C105.98 41.343 106.132 41.3 106.287 41.2717C106.442 41.2429 106.598 41.2262 106.755 41.2218C106.916 41.2168 107.065 41.2136 107.202 41.2136H107.409C107.694 41.2136 107.936 41.2218 108.139 41.2357C108.345 41.2504 108.512 41.2742 108.641 41.3078C108.738 41.3365 108.833 41.3692 108.93 41.4077C109.031 41.4462 109.123 41.4913 109.205 41.5437C109.288 41.5962 109.362 41.6584 109.426 41.7297C109.49 41.7966 109.537 41.8778 109.563 41.9665C109.604 42.109 109.623 42.2475 109.618 42.3818L109.55 43.3838C109.55 43.446 109.554 43.5173 109.563 43.5984C109.572 43.6803 109.586 43.7754 109.604 43.8852C109.628 44.0949 109.767 44.1998 110.025 44.1998H110.142C110.179 44.1998 110.206 44.2219 110.225 44.2653C110.24 44.3236 110.247 44.3837 110.245 44.4439V44.7659C110.245 44.8322 110.211 44.8658 110.142 44.8658H109.825C109.724 44.8664 109.623 44.8617 109.522 44.8519C109.441 44.8434 109.361 44.8289 109.282 44.8085C109.22 44.7884 109.162 44.7594 109.11 44.7224C109.065 44.6915 109.033 44.646 109.019 44.5938L108.972 44.4865ZM110.59 42.9971C110.59 42.7775 110.618 42.5727 110.673 42.381C110.736 42.1844 110.845 42.0053 110.99 41.8583C111.104 41.7248 111.245 41.6175 111.409 41.5364C111.58 41.4503 111.758 41.384 111.947 41.3356C112.134 41.2881 112.325 41.257 112.518 41.2431C112.71 41.2242 112.89 41.2144 113.054 41.2144H113.282C113.411 41.2144 113.546 41.2193 113.688 41.2283C113.83 41.2381 113.97 41.2553 114.108 41.2791C114.25 41.3029 114.39 41.3365 114.527 41.3791C114.665 41.4176 114.792 41.4675 114.907 41.5298C115.057 41.6248 115.191 41.7272 115.306 41.837C115.42 41.9427 115.517 42.0779 115.595 42.245C115.63 42.3077 115.655 42.3754 115.67 42.4457L115.712 42.6464C115.716 42.6792 115.719 42.7103 115.719 42.7398C115.723 42.7677 115.73 42.7972 115.739 42.825H114.713C114.705 42.7894 114.696 42.7539 114.686 42.7185C114.681 42.6794 114.672 42.6409 114.658 42.6038C114.621 42.4605 114.539 42.3326 114.424 42.2385C114.349 42.1609 114.261 42.0979 114.163 42.0525C114.06 41.9989 113.951 41.9577 113.839 41.9296C113.729 41.9011 113.616 41.8822 113.502 41.8731C113.397 41.8594 113.291 41.8523 113.185 41.8518C113.036 41.8522 112.886 41.8618 112.738 41.8804C112.59 41.8984 112.444 41.9342 112.305 41.9869C112.166 42.0404 112.037 42.1181 111.925 42.2163C111.812 42.3224 111.727 42.4554 111.678 42.603L111.637 42.8037C111.623 42.8626 111.616 42.9228 111.616 42.9832V43.1405C111.616 43.4075 111.689 43.632 111.836 43.8139C111.984 43.99 112.174 44.117 112.408 44.1932C112.5 44.2309 112.609 44.2596 112.738 44.2784C112.867 44.2932 113.016 44.3005 113.185 44.3005C113.42 44.3005 113.64 44.276 113.847 44.2284C114.053 44.176 114.243 44.0662 114.418 43.8991C114.5 43.8295 114.568 43.7443 114.617 43.6484C114.662 43.5489 114.69 43.4425 114.7 43.3338H115.739C115.73 43.3593 115.723 43.3856 115.719 43.4125C115.719 43.4388 115.716 43.4651 115.712 43.4911C115.688 43.6263 115.649 43.7583 115.595 43.8843C115.48 44.1137 115.335 44.2981 115.161 44.4365C114.991 44.575 114.803 44.6823 114.596 44.7585C114.389 44.8314 114.175 44.8795 113.956 44.9019C113.732 44.9257 113.507 44.9377 113.282 44.9379H113.054C112.776 44.9377 112.498 44.9185 112.222 44.8806C111.942 44.8472 111.672 44.7545 111.431 44.6086C111.341 44.5668 111.256 44.5163 111.176 44.4578C111.107 44.4057 111.045 44.3458 110.99 44.2792C110.886 44.1763 110.801 44.0549 110.742 43.9212C110.657 43.726 110.609 43.5174 110.597 43.3051C110.593 43.2479 110.59 43.1905 110.59 43.1331V42.9971Z" fill="#6C6C6C"/>
</g>
<defs>
<clipPath id="clip0_3_1777">
<rect width="142.551" height="41.7821" fill="white" transform="translate(1.72461 4.17821)"/>
</clipPath>
</defs>
</svg>
